<?xml version="1.0" encoding="UTF-8" standalone="no"?>
<!-- Created with Inkscape (http://www.inkscape.org/) -->

<svg
   xmlns:dc="http://purl.org/dc/elements/1.1/"
   xmlns:cc="http://creativecommons.org/ns#"
   xmlns:rdf="http://www.w3.org/1999/02/22-rdf-syntax-ns#"
   xmlns:svg="http://www.w3.org/2000/svg"
   xmlns="http://www.w3.org/2000/svg"
   xmlns:sodipodi="http://sodipodi.sourceforge.net/DTD/sodipodi-0.dtd"
   xmlns:inkscape="http://www.inkscape.org/namespaces/inkscape"
   version="1.1"
   id="svg2"
   xml:space="preserve"
   width="1440"
   height="672"
   viewBox="0 0 1440 672"
   sodipodi:docname="2RN2-weakness-dimensionality.svg"
   inkscape:version="0.92.3 (2405546, 2018-03-11)"><metadata
     id="metadata8"><rdf:RDF><cc:Work
         rdf:about=""><dc:format>image/svg+xml</dc:format><dc:type
           rdf:resource="http://purl.org/dc/dcmitype/StillImage" /><dc:title /></cc:Work></rdf:RDF></metadata><defs
     id="defs6"><clipPath
       clipPathUnits="userSpaceOnUse"
       id="clipPath20"><path
         d="m 59.04,73.44 h 990.72 V 444.96 H 59.04 Z"
         id="path18"
         inkscape:connector-curvature="0" /></clipPath></defs><sodipodi:namedview
     pagecolor="#ffffff"
     bordercolor="#666666"
     borderopacity="1"
     objecttolerance="10"
     gridtolerance="10"
     guidetolerance="10"
     inkscape:pageopacity="0"
     inkscape:pageshadow="2"
     inkscape:window-width="1366"
     inkscape:window-height="732"
     id="namedview4"
     showgrid="false"
     inkscape:zoom="0.70317841"
     inkscape:cx="588.985"
     inkscape:cy="314.81786"
     inkscape:window-x="-2"
     inkscape:window-y="-2"
     inkscape:window-maximized="1"
     inkscape:current-layer="g10" /><g
     id="g10"
     inkscape:groupmode="layer"
     inkscape:label="2RN2"
     transform="matrix(1.3333333,0,0,-1.3333333,0,672)"><g
       id="g12" /><g
       id="g14"><g
         id="g16"
         clip-path="url(#clipPath20)"><path
           d="m 95.73,130.96 2.15,0.62 2.14,0.81 2.14,0.57 2.15,0.16 2.14,0.11 2.14,-0.1 2.15,0.02 2.14,-0.04 2.14,-0.03 2.15,-0.02 2.14,-0.08 2.14,0.1 2.15,0.2 2.14,0.35 2.14,0.43 2.15,0.52 2.14,0.04 2.14,2.32 2.15,-3.39 2.14,-0.76 2.14,-0.63 2.15,-0.38 2.14,-0.37 h 2.14 l 2.15,0.27 2.14,0.45 2.14,0.6 2.15,0.98 2.14,1.08 2.14,1.13 2.15,1.77 2.14,1.61 2.14,1.52 2.15,1.47 2.14,1.5 2.14,1.83 2.15,2.15 2.14,1.56 2.14,1.26 2.15,0.58 2.14,-0.32 2.14,-1.41 2.15,5.12 2.14,5.06 2.14,3.31 2.15,1.12 2.14,-1.13 2.14,-3.21 2.15,-3.57 2.14,-2.71 2.14,-1.99 2.15,-2.1 2.14,-0.13 2.14,-0.58 2.14,-1.97 2.15,-2.85 2.14,-3.4 2.14,-3.46 2.15,-1.6 2.14,2.21 2.14,2.33 2.15,2.58 2.14,4.2 2.14,4.51 2.15,3.88 2.14,3.23 2.14,1.91 2.15,-0.06 2.14,-1.1 2.14,-2.11 2.15,-0.58 2.14,1.18 2.14,1.29 2.15,0.47 2.14,-1.6 2.14,-2.78 2.15,1.55 2.14,1.99 2.14,3.15 2.15,4.02 2.14,1.95 2.14,-0.98 2.15,-0.19 2.14,4.74 2.14,5.49 2.15,4.97 2.14,5.23 2.14,3.94 2.15,0.1 2.14,-1.25 2.14,-3.05 2.15,-4.86 2.14,4.06 2.14,4.26 2.15,-0.46 2.14,-4.16 2.14,-4.21 2.15,-3.86 2.14,-1.32 2.14,-0.3 2.15,-4.01 2.14,-2.82 2.14,-1.1 2.15,-0.67 2.14,-0.41 2.14,-0.21 2.15,-0.09 2.14,-0.2 2.14,-0.37 2.15,-0.52 2.14,-0.67 2.14,-0.71 2.15,-0.78 2.14,4.03 2.14,-0.45 2.15,-4.02 2.14,-6.11 2.14,-2.63 2.15,-1.27 2.14,-2.78 2.14,-3.36 2.15,-2.98 2.14,1.53 2.14,3.12 2.15,4.14 2.14,0.88 2.14,-3.67 2.15,-5.41 2.14,-4.35 2.14,-3.04 2.15,-2.5 2.14,1.58 2.14,1.91 2.15,1.99 2.14,2.13 2.14,2.22 2.15,2.08 2.14,1.97 2.14,1.71 2.15,1.5 2.14,0.49 2.14,0.24 2.15,-0.92 2.14,-1.94 2.14,1.29 2.15,1.44 2.14,1.51 2.14,1.45 2.15,1.21 2.14,1.05 2.14,0.82 2.15,0.58 2.14,0.31 2.14,0.01 2.15,-0.34 2.14,-0.73 2.14,-1.14 2.15,-1.58 2.14,-1.88 2.14,-2.12 2.14,-2.23 2.15,-2.19 2.14,-2.04 2.14,2.61 2.15,1.81 2.14,1.05 2.14,0.32 2.15,0.07 2.14,0.5 2.14,1.22 2.15,1.87 2.14,1.68 2.14,0.68 2.15,-0.8 2.14,-1.73 2.14,-2.03 2.15,0.23 2.14,0.06 2.14,-0.98 2.15,-1.64 2.14,0.02 2.14,-0.12 2.15,-0.24 2.14,1.72 2.14,2.42 2.15,2.72 2.14,2.9 2.14,3.39 2.15,3.82 2.14,3.64 2.14,2.75 2.15,1.41 2.14,0.58 2.14,0.43 2.15,5.13 2.14,-0.23 2.14,-5.23 2.15,-0.36 2.14,2.14 2.14,1.58 2.15,-1.5 2.14,-4.03 2.14,-5.83 2.15,5.13 2.14,4.72 2.14,3.94 2.15,1.47 2.14,-1.53 2.14,2.02 2.15,3.76 2.14,-2.76 2.14,-5.42 2.15,5.65 2.14,7.55 2.14,9.62 2.15,12.33 2.14,13.41 2.14,10.06 2.15,3.08 2.14,-12.05 2.14,-2.21 2.15,4.83 2.14,1.05 2.14,-2.99 2.15,6.89 2.14,1.33 2.14,-4.14 2.15,-7.76 2.14,-7.64 2.14,-6.8 2.15,5.02 2.14,9.83 2.14,9.12 2.15,0.59 2.14,-3.61 2.14,-10.05 2.15,8.68 2.14,-1.47 2.14,-6.24 2.15,-12.42 2.14,-5.64 2.14,-8.44 2.15,5.43 2.14,2 2.14,-1.6 2.15,2.66 2.14,2.27 2.14,-0.12 2.15,-2.56 2.14,5.14 2.14,-1.6 2.15,-8.57 2.14,-7.89 2.14,-7.05 2.15,-8.28 2.14,-2.94 2.14,-1.41 2.15,-2.03 2.14,-2.47 2.14,0.94 2.15,1.12 2.14,0.01 2.14,0.96 2.15,1.63 2.14,1.78 2.14,2.62 2.15,6.23 2.14,7.53 2.14,-8.62 2.14,-4.52 2.15,-0.92 2.14,-1.84 2.14,-2.83 2.15,-3.6 2.14,-2.24 2.14,2.26 2.15,1.43 2.14,5.37 2.14,6.12 2.15,6.85 2.14,7.36 2.14,7.28 2.15,4.72 2.14,-0.69 2.14,-6.3 2.15,-9.54 2.14,4.62 2.14,4.85 2.15,6.17 2.14,5.59 2.14,-7.05 2.15,-8.21 2.14,-5.07 2.14,-4.7 2.15,-4.74 2.14,4.62 2.14,1.92 2.15,-2.47 2.14,-5.43 2.14,-1.75 2.15,-3.8 2.14,-4.27 2.14,-1.71 2.15,-1.54 2.14,-0.85 2.14,4.76 2.15,6.18 2.14,8.2 2.14,8.48 2.15,6.73 2.14,-1.38 2.14,-6.09 2.15,-11.2 2.14,14.72 2.14,0.72 2.15,-5.75 2.14,-5.54 2.14,-3.67 2.15,-4.06 2.14,-4.86 2.14,-3.42 2.15,-2.5 2.14,7.85 2.14,8.93 2.15,4.17 2.14,-4.73 2.14,-2.7 2.15,-0.3 2.14,-2.93 2.14,-4.95 2.15,-4.88 2.14,-2.56 2.14,1.55 2.15,1.77 2.14,-0.3 2.14,-2.28 2.15,-3.53 2.14,-1.89 2.14,1.71 2.15,1.39 2.14,2.12 2.14,4.33 2.15,4.3 2.14,3.26 2.14,1.09 2.15,-1.45 2.14,2.46 2.14,3.96 2.15,0.43 2.14,-1.32 2.14,4.34 2.15,7.25 2.14,17.21 2.14,5.39 2.15,-8.83 2.14,-7.09 2.14,-7.46 2.15,-8.17 2.14,-5.54 2.14,2.79 2.15,3.23 2.14,4.3 2.14,1.56 2.15,-2.54 2.14,-5.62 2.14,-4.94 2.15,-4.44 2.14,-4.85 2.14,5.09 2.15,7.34 2.14,9.18 2.14,9.79 2.15,7.92 2.14,2.29 2.14,-3.73 2.14,-7.18 2.15,-8.09 2.14,11.47 2.14,15.13 2.15,19.74 2.14,27.27 2.14,34.66 2.15,67.57 2.14,23.72 2.14,2.31 2.15,-17.63 2.14,24.55 2.14,4.23 2.15,-18.28 2.14,15.25 2.14,-5.95 2.15,7.5 2.14,-11.33 2.14,-22.53 2.15,16.27 2.14,9.96 2.14,-1.04 2.15,12.4 2.14,-7.93 2.14,-25.64 2.15,26.69 2.14,10.51 2.14,-11.15 2.15,4.03 2.14,-17.09 2.14,-26.35 2.15,20.91 2.14,9.07 2.14,-10.07 2.15,19.55 2.14,1.86 2.14,-15.4 2.15,4.85 2.14,-26.98 2.14,25.16 2.15,10.3 2.14,-0.49 2.14,-17.37 2.15,14.87 2.14,7.61 2.14,-2.24 2.15,4.22 2.14,-10.81 2.14,0.47 2.15,-8.64 2.14,19.25 2.14,17.16 2.15,7.68"
           style="fill:none;stroke:#000000;stroke-width:2.25;stroke-linecap:round;stroke-linejoin:round;stroke-miterlimit:10;stroke-dasharray:none;stroke-opacity:1"
           id="path22"
           inkscape:connector-curvature="0" /></g></g><g
       id="g24"><path
   d="M 93.59,73.44 H 950.91"
   style="fill:none;stroke:#000000;stroke-width:0.75;stroke-linecap:round;stroke-linejoin:round;stroke-miterlimit:10;stroke-dasharray:none;stroke-opacity:1"
   id="path26"
   inkscape:connector-curvature="0" /><path
   d="m 93.59,73.44 v -7.2"
   style="fill:none;stroke:#000000;stroke-width:0.75;stroke-linecap:round;stroke-linejoin:round;stroke-miterlimit:10;stroke-dasharray:none;stroke-opacity:1"
   id="path28"
   inkscape:connector-curvature="0" /><path
   d="m 307.92,73.44 v -7.2"
   style="fill:none;stroke:#000000;stroke-width:0.75;stroke-linecap:round;stroke-linejoin:round;stroke-miterlimit:10;stroke-dasharray:none;stroke-opacity:1"
   id="path30"
   inkscape:connector-curvature="0" /><path
   d="m 522.25,73.44 v -7.2"
   style="fill:none;stroke:#000000;stroke-width:0.75;stroke-linecap:round;stroke-linejoin:round;stroke-miterlimit:10;stroke-dasharray:none;stroke-opacity:1"
   id="path32"
   inkscape:connector-curvature="0" /><path
   d="m 736.58,73.44 v -7.2"
   style="fill:none;stroke:#000000;stroke-width:0.75;stroke-linecap:round;stroke-linejoin:round;stroke-miterlimit:10;stroke-dasharray:none;stroke-opacity:1"
   id="path34"
   inkscape:connector-curvature="0" /><path
   d="m 950.91,73.44 v -7.2"
   style="fill:none;stroke:#000000;stroke-width:0.75;stroke-linecap:round;stroke-linejoin:round;stroke-miterlimit:10;stroke-dasharray:none;stroke-opacity:1"
   id="path36"
   inkscape:connector-curvature="0" /><text
   transform="matrix(1,0,0,-1,88.59,47.52)"
   style="font-variant:normal;font-weight:normal;font-size:18px;font-family:Helvetica;-inkscape-font-specification:Helvetica;writing-mode:lr-tb;fill:#000000;fill-opacity:1;fill-rule:nonzero;stroke:none"
   id="text40"><tspan
     x="0"
     y="0"
     id="tspan38">0</tspan></text>


<text
   transform="matrix(1,0,0,-1,292.91,47.52)"
   style="font-variant:normal;font-weight:normal;font-size:18px;font-family:Helvetica;-inkscape-font-specification:Helvetica;writing-mode:lr-tb;fill:#000000;fill-opacity:1;fill-rule:nonzero;stroke:none"
   id="text44"><tspan
     x="0 10.008 20.016001"
     y="0"
     sodipodi:role="line"
     id="tspan42">100</tspan></text>


<text
   transform="matrix(1,0,0,-1,507.24,47.52)"
   style="font-variant:normal;font-weight:normal;font-size:18px;font-family:Helvetica;-inkscape-font-specification:Helvetica;writing-mode:lr-tb;fill:#000000;fill-opacity:1;fill-rule:nonzero;stroke:none"
   id="text48"><tspan
     x="0 10.008 20.016001"
     y="0"
     sodipodi:role="line"
     id="tspan46">200</tspan></text>


<text
   transform="matrix(1,0,0,-1,721.57,47.52)"
   style="font-variant:normal;font-weight:normal;font-size:18px;font-family:Helvetica;-inkscape-font-specification:Helvetica;writing-mode:lr-tb;fill:#000000;fill-opacity:1;fill-rule:nonzero;stroke:none"
   id="text52"><tspan
     x="0 10.008 20.016001"
     y="0"
     sodipodi:role="line"
     id="tspan50">300</tspan></text>


<text
   transform="matrix(1,0,0,-1,935.9,47.52)"
   style="font-variant:normal;font-weight:normal;font-size:18px;font-family:Helvetica;-inkscape-font-specification:Helvetica;writing-mode:lr-tb;fill:#000000;fill-opacity:1;fill-rule:nonzero;stroke:none"
   id="text56"><tspan
     x="0 10.008 20.016001"
     y="0"
     sodipodi:role="line"
     id="tspan54">400</tspan></text>


<path
   d="m 59.04,87.2 v 344"
   style="fill:none;stroke:#000000;stroke-width:0.75;stroke-linecap:round;stroke-linejoin:round;stroke-miterlimit:10;stroke-dasharray:none;stroke-opacity:1"
   id="path58"
   inkscape:connector-curvature="0" /><path
   d="m 59.04,87.2 h -7.2"
   style="fill:none;stroke:#000000;stroke-width:0.75;stroke-linecap:round;stroke-linejoin:round;stroke-miterlimit:10;stroke-dasharray:none;stroke-opacity:1"
   id="path60"
   inkscape:connector-curvature="0" /><path
   d="m 59.04,156 h -7.2"
   style="fill:none;stroke:#000000;stroke-width:0.75;stroke-linecap:round;stroke-linejoin:round;stroke-miterlimit:10;stroke-dasharray:none;stroke-opacity:1"
   id="path62"
   inkscape:connector-curvature="0" /><path
   d="m 59.04,224.8 h -7.2"
   style="fill:none;stroke:#000000;stroke-width:0.75;stroke-linecap:round;stroke-linejoin:round;stroke-miterlimit:10;stroke-dasharray:none;stroke-opacity:1"
   id="path64"
   inkscape:connector-curvature="0" /><path
   d="m 59.04,293.6 h -7.2"
   style="fill:none;stroke:#000000;stroke-width:0.75;stroke-linecap:round;stroke-linejoin:round;stroke-miterlimit:10;stroke-dasharray:none;stroke-opacity:1"
   id="path66"
   inkscape:connector-curvature="0" /><path
   d="m 59.04,362.4 h -7.2"
   style="fill:none;stroke:#000000;stroke-width:0.75;stroke-linecap:round;stroke-linejoin:round;stroke-miterlimit:10;stroke-dasharray:none;stroke-opacity:1"
   id="path68"
   inkscape:connector-curvature="0" /><path
   d="m 59.04,431.2 h -7.2"
   style="fill:none;stroke:#000000;stroke-width:0.75;stroke-linecap:round;stroke-linejoin:round;stroke-miterlimit:10;stroke-dasharray:none;stroke-opacity:1"
   id="path70"
   inkscape:connector-curvature="0" /><text
   transform="matrix(0,1,1,0,41.76,74.69)"
   style="font-variant:normal;font-weight:normal;font-size:18px;font-family:Helvetica;-inkscape-font-specification:Helvetica;writing-mode:lr-tb;fill:#000000;fill-opacity:1;fill-rule:nonzero;stroke:none"
   id="text74"><tspan
     x="0 10.008 15.012"
     y="0"
     sodipodi:role="line"
     id="tspan72">0.0</tspan></text>


<text
   transform="matrix(0,1,1,0,41.76,143.49)"
   style="font-variant:normal;font-weight:normal;font-size:18px;font-family:Helvetica;-inkscape-font-specification:Helvetica;writing-mode:lr-tb;fill:#000000;fill-opacity:1;fill-rule:nonzero;stroke:none"
   id="text78"><tspan
     x="0 10.008 15.012"
     y="0"
     sodipodi:role="line"
     id="tspan76">0.2</tspan></text>


<text
   transform="matrix(0,1,1,0,41.76,212.29)"
   style="font-variant:normal;font-weight:normal;font-size:18px;font-family:Helvetica;-inkscape-font-specification:Helvetica;writing-mode:lr-tb;fill:#000000;fill-opacity:1;fill-rule:nonzero;stroke:none"
   id="text82"><tspan
     x="0 10.008 15.012"
     y="0"
     sodipodi:role="line"
     id="tspan80">0.4</tspan></text>


<text
   transform="matrix(0,1,1,0,41.76,281.09)"
   style="font-variant:normal;font-weight:normal;font-size:18px;font-family:Helvetica;-inkscape-font-specification:Helvetica;writing-mode:lr-tb;fill:#000000;fill-opacity:1;fill-rule:nonzero;stroke:none"
   id="text86"><tspan
     x="0 10.008 15.012"
     y="0"
     sodipodi:role="line"
     id="tspan84">0.6</tspan></text>


<text
   transform="matrix(0,1,1,0,41.76,349.89)"
   style="font-variant:normal;font-weight:normal;font-size:18px;font-family:Helvetica;-inkscape-font-specification:Helvetica;writing-mode:lr-tb;fill:#000000;fill-opacity:1;fill-rule:nonzero;stroke:none"
   id="text90"><tspan
     x="0 10.008 15.012"
     y="0"
     sodipodi:role="line"
     id="tspan88">0.8</tspan></text>


<text
   transform="matrix(0,1,1,0,41.76,418.69)"
   style="font-variant:normal;font-weight:normal;font-size:18px;font-family:Helvetica;-inkscape-font-specification:Helvetica;writing-mode:lr-tb;fill:#000000;fill-opacity:1;fill-rule:nonzero;stroke:none"
   id="text94"><tspan
     x="0 10.008 15.012"
     y="0"
     sodipodi:role="line"
     id="tspan92">1.0</tspan></text>


<path
   d="m 59.04,73.44 h 990.72 V 444.96 H 59.04 V 73.44"
   style="fill:none;stroke:#000000;stroke-width:0.75;stroke-linecap:round;stroke-linejoin:round;stroke-miterlimit:10;stroke-dasharray:none;stroke-opacity:1"
   id="path96"
   inkscape:connector-curvature="0" /></g><g
       id="g98"><text
   transform="matrix(1,0,0,-1,512.34,18.72)"
   style="font-variant:normal;font-weight:normal;font-size:18px;font-family:Helvetica;-inkscape-font-specification:Helvetica;writing-mode:lr-tb;fill:#000000;fill-opacity:1;fill-rule:nonzero;stroke:none"
   id="text102"><tspan
     x="0 10.998 16.812 26.82 41.813999 51.821999 56.826 69.821999 79.110001"
     y="0"
     sodipodi:role="line"
     id="tspan100">Frame No.</tspan></text>


<text
   transform="matrix(0,1,1,0,12.96,218.94)"
   style="font-variant:normal;font-weight:normal;font-size:18px;font-family:Helvetica;-inkscape-font-specification:Helvetica;writing-mode:lr-tb;fill:#000000;fill-opacity:1;fill-rule:nonzero;stroke:none"
   id="text106"><tspan
     x="0 10.998 25.992001 36.504002 45.504002 54.504002 64.512001 70.505997"
     y="0"
     sodipodi:role="line"
     id="tspan104">TM−score</tspan></text>


</g><flowRoot
       xml:space="preserve"
       id="flowRoot134"
       style="font-style:normal;font-weight:normal;font-size:16px;line-height:1.25;font-family:sans-serif;letter-spacing:0px;word-spacing:0px;fill:#000000;fill-opacity:1;stroke:none"
       transform="matrix(0.75000002,0,0,-0.75000002,-29.798421,588.56538)"><flowRegion
         id="flowRegion136"><rect
           id="rect138"
           width="163.55792"
           height="119.32947"
           x="217.58347"
           y="241.0994" /></flowRegion><flowPara
         style="font-style:normal;font-variant:normal;font-weight:bold;font-stretch:normal;font-size:18.66666603px;font-family:'DejaVu Sans Mono';-inkscape-font-specification:'DejaVu Sans Mono'"
         id="flowPara152">|D1 |D2 |D3 |</flowPara><flowPara
         id="flowPara146"
         style="font-style:normal;font-variant:normal;font-weight:normal;font-stretch:normal;font-size:18.66666603px;font-family:'DejaVu Sans Mono';-inkscape-font-specification:'DejaVu Sans Mono'">|0.1|0.5|0.9|</flowPara><flowPara
         id="flowPara142"
         style="font-style:normal;font-variant:normal;font-weight:normal;font-stretch:normal;font-size:18.66666603px;font-family:'DejaVu Sans Mono';-inkscape-font-specification:'DejaVu Sans Mono'">|0.3|0.8|0.7|</flowPara><flowPara
         id="flowPara144"
         style="font-style:normal;font-variant:normal;font-weight:normal;font-stretch:normal;font-size:18.66666603px;font-family:'DejaVu Sans Mono';-inkscape-font-specification:'DejaVu Sans Mono'">|0.4|0.3|0.6|</flowPara><flowPara
         style="font-style:normal;font-variant:normal;font-weight:normal;font-stretch:normal;font-size:18.66666603px;font-family:'DejaVu Sans Mono';-inkscape-font-specification:'DejaVu Sans Mono'"
         id="flowPara194">|...|...|...|</flowPara></flowRoot><circle
       style="fill:#0000ff;fill-opacity:1;fill-rule:evenodd;stroke-width:3.30882382"
       id="path122-7-2-2"
       cx="194.11859"
       cy="-168.52054"
       r="5.625"
       transform="scale(1,-1)" /><path
       style="opacity:1;vector-effect:none;fill:none;fill-opacity:1;stroke:#000000;stroke-width:1.5;stroke-linecap:butt;stroke-linejoin:miter;stroke-miterlimit:4;stroke-dasharray:12.00000036, 6.00000018;stroke-dashoffset:0;stroke-opacity:1"
       d="m 136.48906,392.80862 102.39223,-0.53328 v 0"
       id="path162"
       inkscape:connector-curvature="0" /><path
       style="opacity:1;vector-effect:none;fill:none;fill-opacity:1;stroke:#000000;stroke-width:1.5;stroke-linecap:butt;stroke-linejoin:miter;stroke-miterlimit:4;stroke-dasharray:12.00000036, 6.00000018;stroke-dashoffset:0;stroke-opacity:1"
       d="m 136.89404,408.57284 102.39224,-0.53328 v 0"
       id="path162-2"
       inkscape:connector-curvature="0" /><path
       style="opacity:1;vector-effect:none;fill:none;fill-opacity:1;stroke:#000000;stroke-width:1.5;stroke-linecap:butt;stroke-linejoin:miter;stroke-miterlimit:4;stroke-dasharray:12.00000036, 6.00000018;stroke-dashoffset:0;stroke-opacity:1"
       d="m 136.92247,320.88098 102.39225,-0.53328 v 0"
       id="path162-2-0"
       inkscape:connector-curvature="0" /><path
       style="opacity:1;vector-effect:none;fill:none;fill-opacity:1;stroke:#000000;stroke-width:1.5;stroke-linecap:butt;stroke-linejoin:miter;stroke-miterlimit:4;stroke-dasharray:12.00000036, 6.00000018;stroke-dashoffset:0;stroke-opacity:1"
       d="m 193.07263,179.49721 v 131.22905 h -0.75419"
       id="path200"
       inkscape:connector-curvature="0" /><flowRoot
       xml:space="preserve"
       id="flowRoot134-5"
       style="font-style:normal;font-weight:normal;font-size:16px;line-height:1.25;font-family:sans-serif;letter-spacing:0px;word-spacing:0px;fill:#000000;fill-opacity:1;stroke:none"
       transform="matrix(0.75000002,0,0,-0.75000002,119.32228,586.8621)"><flowRegion
         id="flowRegion136-9"><rect
           id="rect138-5"
           width="163.55792"
           height="119.32947"
           x="217.58347"
           y="241.0994" /></flowRegion><flowPara
         style="font-style:normal;font-variant:normal;font-weight:bold;font-stretch:normal;font-size:18.66666603px;font-family:'DejaVu Sans Mono';-inkscape-font-specification:'DejaVu Sans Mono'"
         id="flowPara152-6">|D1 |D2 |D3 |</flowPara><flowPara
         id="flowPara146-1"
         style="font-style:normal;font-variant:normal;font-weight:normal;font-stretch:normal;font-size:18.66666603px;font-family:'DejaVu Sans Mono';-inkscape-font-specification:'DejaVu Sans Mono'">|0.3|0.1|0.2|</flowPara><flowPara
         id="flowPara142-1"
         style="font-style:normal;font-variant:normal;font-weight:normal;font-stretch:normal;font-size:18.66666603px;font-family:'DejaVu Sans Mono';-inkscape-font-specification:'DejaVu Sans Mono'">|0.2|0.5|0.7|</flowPara><flowPara
         id="flowPara144-4"
         style="font-style:normal;font-variant:normal;font-weight:normal;font-stretch:normal;font-size:18.66666603px;font-family:'DejaVu Sans Mono';-inkscape-font-specification:'DejaVu Sans Mono'">|0.1|0.9|0.1|</flowPara><flowPara
         style="font-style:normal;font-variant:normal;font-weight:normal;font-stretch:normal;font-size:18.66666603px;font-family:'DejaVu Sans Mono';-inkscape-font-specification:'DejaVu Sans Mono'"
         id="flowPara194-3">|...|...|...|</flowPara></flowRoot><path
       style="opacity:1;vector-effect:none;fill:none;fill-opacity:1;stroke:#000000;stroke-width:1.5;stroke-linecap:butt;stroke-linejoin:miter;stroke-miterlimit:4;stroke-dasharray:12.00000036, 6.00000018;stroke-dashoffset:0;stroke-opacity:1"
       d="M 285.60977,391.10534 388.002,390.57206 v 0"
       id="path162-7"
       inkscape:connector-curvature="0" /><path
       style="opacity:1;vector-effect:none;fill:none;fill-opacity:1;stroke:#000000;stroke-width:1.5;stroke-linecap:butt;stroke-linejoin:miter;stroke-miterlimit:4;stroke-dasharray:12.00000036, 6.00000018;stroke-dashoffset:0;stroke-opacity:1"
       d="m 286.01475,406.86956 102.39223,-0.53328 v 0"
       id="path162-2-2"
       inkscape:connector-curvature="0" /><path
       style="opacity:1;vector-effect:none;fill:none;fill-opacity:1;stroke:#000000;stroke-width:1.5;stroke-linecap:butt;stroke-linejoin:miter;stroke-miterlimit:4;stroke-dasharray:12.00000036, 6.00000018;stroke-dashoffset:0;stroke-opacity:1"
       d="m 286.04318,319.17771 102.39224,-0.53328 v 0"
       id="path162-2-0-7"
       inkscape:connector-curvature="0" /><circle
       style="fill:#0000ff;fill-opacity:1;fill-rule:evenodd;stroke-width:3.30882382"
       id="path122-7-2-2-3"
       cx="342.42737"
       cy="-171.22626"
       r="5.625"
       transform="scale(1,-1)" /><path
       style="opacity:1;vector-effect:none;fill:none;fill-opacity:1;stroke:#000000;stroke-width:1.5;stroke-linecap:butt;stroke-linejoin:miter;stroke-miterlimit:4;stroke-dasharray:12.00000036, 6.00000018;stroke-dashoffset:0;stroke-opacity:1"
       d="m 341.64806,181.00559 -0.7542,126.70391 v 0"
       id="path262"
       inkscape:connector-curvature="0" /><circle
       style="fill:#0000ff;fill-opacity:1;fill-rule:evenodd;stroke-width:3.30882382"
       id="path122-7-2-2-39"
       cx="853.50842"
       cy="-214.09776"
       r="5.625"
       transform="scale(1,-1)" /><flowRoot
       xml:space="preserve"
       id="flowRoot134-5-2"
       style="font-style:normal;font-weight:normal;font-size:16px;line-height:1.25;font-family:sans-serif;letter-spacing:0px;word-spacing:0px;fill:#000000;fill-opacity:1;stroke:none"
       transform="matrix(0.75000002,0,0,-0.75000002,625.09044,586.74478)"><flowRegion
         id="flowRegion136-9-4"><rect
           id="rect138-5-4"
           width="163.55792"
           height="119.32947"
           x="217.58347"
           y="241.0994" /></flowRegion><flowPara
         style="font-style:normal;font-variant:normal;font-weight:bold;font-stretch:normal;font-size:18.66666603px;font-family:'DejaVu Sans Mono';-inkscape-font-specification:'DejaVu Sans Mono'"
         id="flowPara152-6-4">|D1 |D2 |D3 |</flowPara><flowPara
         id="flowPara146-1-9"
         style="font-style:normal;font-variant:normal;font-weight:normal;font-stretch:normal;font-size:18.66666603px;font-family:'DejaVu Sans Mono';-inkscape-font-specification:'DejaVu Sans Mono'">|0.7|0.9|0.8|</flowPara><flowPara
         id="flowPara142-1-9"
         style="font-style:normal;font-variant:normal;font-weight:normal;font-stretch:normal;font-size:18.66666603px;font-family:'DejaVu Sans Mono';-inkscape-font-specification:'DejaVu Sans Mono'">|0.1|0.7|0.5|</flowPara><flowPara
         id="flowPara144-4-3"
         style="font-style:normal;font-variant:normal;font-weight:normal;font-stretch:normal;font-size:18.66666603px;font-family:'DejaVu Sans Mono';-inkscape-font-specification:'DejaVu Sans Mono'">|0.4|0.9|0.4|</flowPara><flowPara
         style="font-style:normal;font-variant:normal;font-weight:normal;font-stretch:normal;font-size:18.66666603px;font-family:'DejaVu Sans Mono';-inkscape-font-specification:'DejaVu Sans Mono'"
         id="flowPara194-3-8">|...|...|...|</flowPara></flowRoot><path
       style="opacity:1;vector-effect:none;fill:none;fill-opacity:1;stroke:#000000;stroke-width:1.5;stroke-linecap:butt;stroke-linejoin:miter;stroke-miterlimit:4;stroke-dasharray:12.00000036, 6.00000018;stroke-dashoffset:0;stroke-opacity:1"
       d="m 791.37792,390.98802 102.39224,-0.53328 v 0"
       id="path162-7-3"
       inkscape:connector-curvature="0" /><path
       style="opacity:1;vector-effect:none;fill:none;fill-opacity:1;stroke:#000000;stroke-width:1.5;stroke-linecap:butt;stroke-linejoin:miter;stroke-miterlimit:4;stroke-dasharray:12.00000036, 6.00000018;stroke-dashoffset:0;stroke-opacity:1"
       d="m 791.7829,406.75224 102.39224,-0.53328 v 0"
       id="path162-2-2-2"
       inkscape:connector-curvature="0" /><path
       style="opacity:1;vector-effect:none;fill:none;fill-opacity:1;stroke:#000000;stroke-width:1.5;stroke-linecap:butt;stroke-linejoin:miter;stroke-miterlimit:4;stroke-dasharray:12.00000036, 6.00000018;stroke-dashoffset:0;stroke-opacity:1"
       d="m 791.81133,319.06039 102.39225,-0.53328 v 0"
       id="path162-2-0-7-9"
       inkscape:connector-curvature="0" /><path
       style="opacity:1;vector-effect:none;fill:none;fill-opacity:1;stroke:#000000;stroke-width:1.5;stroke-linecap:butt;stroke-linejoin:miter;stroke-miterlimit:4;stroke-dasharray:12.00000036, 6.00000018;stroke-dashoffset:0;stroke-opacity:1"
       d="m 852.96002,219.89 -0.717,89.31112 v 0"
       id="path324"
       inkscape:connector-curvature="0" /><flowRoot
       xml:space="preserve"
       id="flowRoot326"
       style="fill:black;fill-opacity:1;stroke:none;font-family:sans-serif;font-style:normal;font-weight:normal;font-size:42.66666667px;line-height:1.25;letter-spacing:0px;word-spacing:0px;"><flowRegion
         id="flowRegion328"
         style="font-size:42.66666667px;"><rect
           id="rect330"
           width="393.18439"
           height="91.508385"
           x="602.34637"
           y="133.00558"
           style="font-size:42.66666794px" /></flowRegion><flowPara
         id="flowPara332" /></flowRoot><flowRoot
       xml:space="preserve"
       id="flowRoot334"
       style="fill:black;fill-opacity:1;stroke:none;font-family:sans-serif;font-style:normal;font-weight:normal;font-size:16px;line-height:1.25;letter-spacing:0px;word-spacing:0px"><flowRegion
         id="flowRegion336"><rect
           id="rect338"
           width="331.84357"
           height="107.59776"
           x="622.45813"
           y="135.01675" /></flowRegion><flowPara
         id="flowPara340" /></flowRoot><flowRoot
       xml:space="preserve"
       id="flowRoot342"
       style="font-style:normal;font-weight:normal;font-size:42.66666794px;line-height:1.25;font-family:sans-serif;letter-spacing:0px;word-spacing:0px;fill:#000000;fill-opacity:1;stroke:none"
       transform="matrix(0.75000002,0,0,-0.75000002,0,513.00001)"><flowRegion
         id="flowRegion344"
         style="font-size:42.66666794px"><rect
           id="rect346"
           width="359.99997"
           height="115.64245"
           x="624.4693"
           y="149.09497"
           style="font-size:42.66666794px" /></flowRegion><flowPara
         id="flowPara348"
         style="font-size:74.66666412px">  ............</flowPara></flowRoot></g></svg>