<?xml version="1.0" encoding="UTF-8" standalone="no"?>
<!-- Created with Inkscape (http://www.inkscape.org/) -->

<svg
   xmlns:dc="http://purl.org/dc/elements/1.1/"
   xmlns:cc="http://creativecommons.org/ns#"
   xmlns:rdf="http://www.w3.org/1999/02/22-rdf-syntax-ns#"
   xmlns:svg="http://www.w3.org/2000/svg"
   xmlns="http://www.w3.org/2000/svg"
   xmlns:sodipodi="http://sodipodi.sourceforge.net/DTD/sodipodi-0.dtd"
   xmlns:inkscape="http://www.inkscape.org/namespaces/inkscape"
   version="1.1"
   id="svg2"
   xml:space="preserve"
   width="1440"
   height="672"
   viewBox="0 0 1440 672"
   sodipodi:docname="2RN2-AlgorithmDescription-pdbs-ink.svg"
   inkscape:version="0.92.3 (2405546, 2018-03-11)"><metadata
     id="metadata8"><rdf:RDF><cc:Work
         rdf:about=""><dc:format>image/svg+xml</dc:format><dc:type
           rdf:resource="http://purl.org/dc/dcmitype/StillImage" /><dc:title /></cc:Work></rdf:RDF></metadata><defs
     id="defs6"><clipPath
       clipPathUnits="userSpaceOnUse"
       id="clipPath20"><path
         d="m 59.04,73.44 h 990.72 V 444.96 H 59.04 Z"
         id="path18"
         inkscape:connector-curvature="0" /></clipPath></defs><sodipodi:namedview
     pagecolor="#ffffff"
     bordercolor="#666666"
     borderopacity="1"
     objecttolerance="10"
     gridtolerance="10"
     guidetolerance="10"
     inkscape:pageopacity="0"
     inkscape:pageshadow="2"
     inkscape:window-width="1366"
     inkscape:window-height="732"
     id="namedview4"
     showgrid="false"
     inkscape:zoom="0.35355339"
     inkscape:cx="53.671877"
     inkscape:cy="167.4489"
     inkscape:window-x="-2"
     inkscape:window-y="-2"
     inkscape:window-maximized="1"
     inkscape:current-layer="g10" /><g
     id="g10"
     inkscape:groupmode="layer"
     inkscape:label="2RN2-AlgorithmDescription-pdbs"
     transform="matrix(1.3333333,0,0,-1.3333333,0,672)"><path
       style="opacity:1;vector-effect:none;fill:none;fill-opacity:1;stroke:#0000ff;stroke-width:1.5;stroke-linecap:butt;stroke-linejoin:miter;stroke-miterlimit:4;stroke-dasharray:12.00000036, 6.00000018;stroke-dashoffset:0;stroke-opacity:1"
       d="m 529.96501,63.00432 0.56999,99.10999 h 0.75"
       id="path1413-6-7-5"
       inkscape:connector-curvature="0" /><path
       style="opacity:1;vector-effect:none;fill:none;fill-opacity:1;stroke:#0000ff;stroke-width:1.63157022;stroke-linecap:butt;stroke-linejoin:miter;stroke-miterlimit:4;stroke-dasharray:13.0525617, 6.52628085;stroke-dashoffset:0;stroke-opacity:1"
       d="m 541.22928,61.013894 0.54145,123.438666 h 0.71246"
       id="path1413-6-7-5-6"
       inkscape:connector-curvature="0" /><path
       style="opacity:1;vector-effect:none;fill:none;fill-opacity:1;stroke:#0000ff;stroke-width:1.63157022;stroke-linecap:butt;stroke-linejoin:miter;stroke-miterlimit:4;stroke-dasharray:13.0525617, 6.52628085;stroke-dashoffset:0;stroke-opacity:1"
       d="m 549.94853,61.745669 0.54145,123.438671 h 0.71246"
       id="path1413-6-7-5-6-2"
       inkscape:connector-curvature="0" /><path
       style="opacity:1;vector-effect:none;fill:none;fill-opacity:1;stroke:#0000ff;stroke-width:1.5;stroke-linecap:butt;stroke-linejoin:miter;stroke-miterlimit:4;stroke-dasharray:12.00000038, 6.00000019;stroke-dashoffset:0;stroke-opacity:1"
       d="M 562.33,231.61 561.75001,61.499998 h -0.375"
       id="path1513"
       inkscape:connector-curvature="0" /><path
       style="opacity:1;vector-effect:none;fill:none;fill-opacity:1;stroke:#0000ff;stroke-width:1.53956771;stroke-linecap:butt;stroke-linejoin:miter;stroke-miterlimit:4;stroke-dasharray:12.31654185, 6.15827092;stroke-dashoffset:0;stroke-opacity:1"
       d="M 571.78874,240.77157 571.20875,61.56872 h -0.375"
       id="path1513-9"
       inkscape:connector-curvature="0" /><path
       style="opacity:1;vector-effect:none;fill:none;fill-opacity:1;stroke:#0000ff;stroke-width:1.53342426;stroke-linecap:butt;stroke-linejoin:miter;stroke-miterlimit:4;stroke-dasharray:12.26739441, 6.1336972;stroke-dashoffset:0;stroke-opacity:1"
       d="M 580.40864,242.94768 579.8389,61.972513 h -0.36837"
       id="path1513-1"
       inkscape:connector-curvature="0" /><g
       id="g12" /><g
       id="g14"
       transform="translate(0,4.5)"><g
         id="g16"
         clip-path="url(#clipPath20)"><path
           d="m 95.73,131.21 2.15,0.8 2.14,0.65 2.14,0.18 2.15,0.3 2.14,0.12 h 2.14 l 2.15,-0.05 2.14,0.03 2.14,-0.02 h 2.15 l 2.14,-0.04 2.14,0.18 2.15,0.34 2.14,0.54 2.14,0.42 2.15,0.25 2.14,-0.02 2.14,0.53 2.15,-1.45 2.14,-0.94 2.14,-0.73 2.15,-0.4 2.14,-0.31 2.14,0.08 2.15,0.32 2.14,0.45 2.14,0.58 2.15,0.72 2.14,0.76 2.14,0.92 2.15,1.01 2.14,1.2 2.14,1.34 2.15,1.68 2.14,2.47 2.14,2.6 2.15,2.1 2.14,1.29 2.14,1.03 2.15,0.68 2.14,-0.7 2.14,-1.58 2.15,5.19 2.14,4.94 2.14,3.38 2.15,0.9 2.14,-1.46 2.14,-3.31 2.15,-3.09 2.14,-1.86 2.14,-1.56 2.15,-2.04 2.14,-0.94 2.14,0.17 2.14,-1.34 2.15,-2.57 2.14,-3.6 2.14,-3.78 2.15,-2.4 2.14,2.34 2.14,2.57 2.15,2.59 2.14,3.36 2.14,3.37 2.15,2.61 2.14,2.77 2.14,2.81 2.15,1.27 2.14,-0.06 2.14,-0.82 2.15,-1.5 2.14,-0.15 2.14,1.09 2.15,0.84 2.14,-0.58 2.14,-2.55 2.15,3.25 2.14,1.59 2.14,2.66 2.15,2.71 2.14,1.99 2.14,-1.82 2.15,1.18 2.14,5.79 2.14,6.36 2.15,5.61 2.14,5.62 2.14,-2.66 2.15,-1.65 2.14,-1.02 2.14,-1.42 2.15,-1 2.14,0.95 2.14,-0.36 2.15,-2.18 2.14,-2.82 2.14,-5.62 2.15,-2.7 2.14,-0.5 2.14,0.05 2.15,-1.62 2.14,-0.79 2.14,-0.03 2.15,0.01 2.14,0.02 2.14,0.19 2.15,0.32 2.14,0.25 2.14,0.09 2.15,-0.1 2.14,-0.34 2.14,-0.61 2.15,-0.85 2.14,2.55 2.14,-2.75 2.15,-5.46 2.14,-7.74 2.14,-3.1 2.15,0.68 2.14,-4.07 2.14,-2.61 2.15,0.4 2.14,2.49 2.14,4.99 2.15,4.64 2.14,-0.51 2.14,-5.63 2.15,-5.19 2.14,-3.85 2.14,-2.96 2.15,-2.49 2.14,1.62 2.14,1.87 2.15,1.85 2.14,2.01 2.14,2.02 2.15,2.08 2.14,2 2.14,1.62 2.15,1.22 2.14,0.81 2.14,0.74 2.15,-0.29 2.14,-1.34 2.14,1.44 2.15,1.49 2.14,1.36 2.14,1.27 2.15,1.01 2.14,0.86 2.14,0.54 2.15,0.27 2.14,-0.03 2.14,-0.39 2.15,-0.78 2.14,-1.21 2.14,-1.53 2.15,-1.86 2.14,-2.13 2.14,-2.32 2.14,-2.27 2.15,-2.22 2.14,-2.08 2.14,3.54 2.15,2.81 2.14,2.01 2.14,1.33 2.15,0.76 2.14,0.44 2.14,0.95 2.15,1.23 2.14,0.63 2.14,-0.58 2.15,-1.65 2.14,-2.02 2.14,-1.71 2.15,-0.61 2.14,-0.23 2.14,-1.14 2.15,-1.43 2.14,0.14 2.14,0.01 2.15,0.57 2.14,2.23 2.14,2.47 2.15,2.66 2.14,2.87 2.14,3.27 2.15,3.75 2.14,3.76 2.14,3.05 2.15,1.66 2.14,0.62 2.14,0.17 2.15,4.45 2.14,-1 2.14,-5.41 2.15,1.28 2.14,1.72 2.14,0.68 2.15,-2.39 2.14,-4.43 2.14,-6.3 2.15,5.61 2.14,5.54 2.14,4.78 2.15,2.97 2.14,0.22 2.14,-0.36 2.15,6.39 2.14,-0.37 2.14,-4.03 2.15,6.78 2.14,8.38 2.14,10.16 2.15,10.31 2.14,7.87 2.14,1.37 2.15,-5.31 2.14,4.78 2.14,6.96 2.15,4.2 2.14,-1.09 2.14,-6.09 2.15,10.8 2.14,3.98 2.14,-4.94 2.15,-10.68 2.14,-11.52 2.14,-10.12 2.15,15.9 2.14,19.08 2.14,8.31 2.15,-11.59 2.14,-12.49 2.14,-15.31 2.15,-8.69 2.14,0.39 2.14,6.48 2.15,1.6 2.14,-4.47 2.14,-7.02 2.15,2.36 2.14,-1.53 2.14,-2.83 2.15,5.02 2.14,2.25 2.14,-3.22 2.15,-7.34 2.14,0.57 2.14,-3.72 2.15,-6.54 2.14,-4.22 2.14,-6.7 2.15,-3.62 2.14,0.22 2.14,-0.82 2.15,-1.6 2.14,-2.15 2.14,0.68 2.15,1.22 2.14,0.6 2.14,0.23 2.15,0.62 2.14,1.69 2.14,3.61 2.15,7.6 2.14,6.84 2.14,-7.45 2.14,-6.89 2.15,-0.94 2.14,-2.17 2.14,-3.21 2.15,-4.09 2.14,-3.77 2.14,1.92 2.15,1.72 2.14,4.85 2.14,5.5 2.15,6.15 2.14,6.66 2.14,6.46 2.15,4.63 2.14,0.26 2.14,-5.12 2.15,-8.61 2.14,4.21 2.14,4.49 2.15,5.39 2.14,-0.44 2.14,-6.9 2.15,-4.63 2.14,-4.21 2.14,-3.55 2.15,-4.81 2.14,4.21 2.14,2.73 2.15,-0.81 2.14,-4.21 2.14,-4.12 2.15,-2.36 2.14,-2.95 2.14,-2.99 2.15,-3.13 2.14,3.3 2.14,3.91 2.15,4.98 2.14,7.34 2.14,9.19 2.15,7.42 2.14,-0.67 2.14,-5.7 2.15,-11.28 2.14,13.05 2.14,1.14 2.15,-5.32 2.14,-5.19 2.14,-3.16 2.15,-3.24 2.14,-4.23 2.14,-3.47 2.15,-2.32 2.14,8.03 2.14,7.44 2.15,2.2 2.14,-5.13 2.14,-0.28 2.15,-1.8 2.14,-4.21 2.14,-5.66 2.15,-5.07 2.14,-1.8 2.14,1.84 2.15,1.1 2.14,-0.93 2.14,-2.73 2.15,-3.39 2.14,-0.01 2.14,2.29 2.15,2 2.14,2.11 2.14,4.98 2.15,4.9 2.14,3.6 2.14,0.96 2.15,-1.86 2.14,-2.09 2.14,2.05 2.15,0.72 2.14,-1.12 2.14,3.23 2.15,12.36 2.14,17.27 2.14,5.37 2.15,-8.84 2.14,-8.15 2.14,-7.7 2.15,-6.66 2.14,-4.67 2.14,2.26 2.15,1.03 2.14,3.51 2.14,2.41 2.15,-0.54 2.14,-3.1 2.14,-4.41 2.15,-5.67 2.14,-4.51 2.14,6.11 2.15,6.65 2.14,8.05 2.14,9.25 2.15,7.43 2.14,2.32 2.14,-3.38 2.14,-6.51 2.15,-7.53 2.14,10.16 2.14,12.45 2.15,16.55 2.14,24.34 2.14,29.6 2.15,34.09 2.14,7.22 2.14,-1.02 2.15,-6.64 2.14,6.28 2.14,-3.49 2.15,-12.74 2.14,20.12 2.14,6.99 2.15,3.06 2.14,-12.22 2.14,-20.05 2.15,16.86 2.14,12.85 2.14,5.45 2.15,-4.38 2.14,-11.79 2.14,-14.47 2.15,9.3 2.14,4.12 2.14,-4.01 2.15,12.43 2.14,0.41 2.14,-9.53 2.15,5.66 2.14,0.5 2.14,-7.85 2.15,11.17 2.14,5.01 2.14,-0.54 2.15,-0.23 2.14,-23.47 2.14,20.64 2.15,5.84 2.14,-1.44 2.14,-9.75 2.15,6.72 2.14,4.28 2.14,0.44 2.15,-10.77 2.14,-14.34 2.14,-0.88 2.15,-2.84 2.14,12.15 2.14,11.19 2.15,8.86"
           style="fill:none;stroke:#000000;stroke-width:2.25;stroke-linecap:round;stroke-linejoin:round;stroke-miterlimit:10;stroke-dasharray:none;stroke-opacity:1"
           id="path22"
           inkscape:connector-curvature="0" /></g></g><path
       style="opacity:1;vector-effect:none;fill:#ff0000;fill-opacity:1;stroke:#ff0000;stroke-width:1.41826487;stroke-linecap:butt;stroke-linejoin:miter;stroke-miterlimit:4;stroke-dasharray:11.34611974, 5.67305987;stroke-dashoffset:0;stroke-opacity:1"
       d="m 93.630864,120.00344 -1.164666,239.99468 v 0"
       id="path110"
       inkscape:connector-curvature="0" /><path
       style="opacity:1;vector-effect:none;fill:#ff0000;fill-opacity:1;stroke:#ff0000;stroke-width:1.41826499;stroke-linecap:butt;stroke-linejoin:miter;stroke-miterlimit:4;stroke-dasharray:11.34612017, 5.67306009;stroke-dashoffset:0;stroke-opacity:1"
       d="m 307.42999,120.00344 -1.16467,239.99469 v 0"
       id="path110-3"
       inkscape:connector-curvature="0" /><path
       style="opacity:1;vector-effect:none;fill:#ff6600;fill-opacity:1;stroke:#ff0000;stroke-width:1.41826499;stroke-linecap:butt;stroke-linejoin:miter;stroke-miterlimit:4;stroke-dasharray:11.34612021, 5.67306011;stroke-dashoffset:0;stroke-opacity:1"
       d="m 520.58487,120.00267 -1.16467,239.99468 v 0"
       id="path110-3-6"
       inkscape:connector-curvature="0" /><path
       style="opacity:1;vector-effect:none;fill:#ff6600;fill-opacity:1;stroke:#ff0000;stroke-width:1.41826499;stroke-linecap:butt;stroke-linejoin:miter;stroke-miterlimit:4;stroke-dasharray:11.34612021, 5.67306011;stroke-dashoffset:0;stroke-opacity:1"
       d="m 738.08487,120.00267 -1.16467,239.99468 v 0"
       id="path110-3-6-7"
       inkscape:connector-curvature="0" /><path
       style="opacity:1;vector-effect:none;fill:#ff6600;fill-opacity:1;stroke:#ff0000;stroke-width:1.41826499;stroke-linecap:butt;stroke-linejoin:miter;stroke-miterlimit:4;stroke-dasharray:11.34612021, 5.67306011;stroke-dashoffset:0;stroke-opacity:1"
       d="m 951.15474,120.00267 -1.16467,239.99468 v 0"
       id="path110-3-6-7-5"
       inkscape:connector-curvature="0" /><path
       style="opacity:1;vector-effect:none;fill:#ff6600;fill-opacity:1;stroke:#ff0000;stroke-width:1.41826296;stroke-linecap:butt;stroke-linejoin:miter;stroke-miterlimit:4;stroke-dasharray:11.34610421, 5.67305211;stroke-dashoffset:0;stroke-opacity:1"
       d="m 1015.6548,120.00267 -1.1648,239.99468 v 0"
       id="path110-3-6-7-5-3"
       inkscape:connector-curvature="0" /><path
       style="opacity:1;vector-effect:none;fill:none;fill-opacity:1;stroke:#ff0000;stroke-width:1.5;stroke-linecap:butt;stroke-linejoin:miter;stroke-miterlimit:4;stroke-dasharray:12.00000036, 6.00000018;stroke-dashoffset:0;stroke-opacity:1"
       d="m 92.507065,363.6553 922.023835,2.06472 v 0"
       id="path1396"
       inkscape:connector-curvature="0" /><path
       style="opacity:1;vector-effect:none;fill:none;fill-opacity:1;stroke:#ff0000;stroke-width:1.5;stroke-linecap:butt;stroke-linejoin:miter;stroke-miterlimit:4;stroke-dasharray:12.00000036, 6.00000018;stroke-dashoffset:0;stroke-opacity:1"
       d="m 94.67459,121.63884 922.02381,2.06472 v 0"
       id="path1396-3"
       inkscape:connector-curvature="0" /><path
       style="opacity:1;vector-effect:none;fill:none;fill-opacity:1;stroke:#0000ff;stroke-width:1.4055022;stroke-linecap:butt;stroke-linejoin:miter;stroke-miterlimit:4;stroke-dasharray:11.2440186, 5.62200929;stroke-dashoffset:0;stroke-opacity:1"
       d="M 589.46941,210.12505 588.8958,59.11086 h -0.37088"
       id="path1513-1-2"
       inkscape:connector-curvature="0" /><path
       style="opacity:1;vector-effect:none;fill:none;fill-opacity:1;stroke:#0000ff;stroke-width:1.53342426;stroke-linecap:butt;stroke-linejoin:miter;stroke-miterlimit:4;stroke-dasharray:12.26739441, 6.1336972;stroke-dashoffset:0;stroke-opacity:1"
       d="M 595.40868,242.74473 594.83894,61.769572 h -0.36837"
       id="path1513-1-7"
       inkscape:connector-curvature="0" /><path
       style="opacity:1;vector-effect:none;fill:none;fill-opacity:1;stroke:#0000ff;stroke-width:1.42596912;stroke-linecap:butt;stroke-linejoin:miter;stroke-miterlimit:4;stroke-dasharray:11.40775291, 5.70387645;stroke-dashoffset:0;stroke-opacity:1"
       d="M 603.71627,209.10745 603.11385,61.098175 h -0.3895"
       id="path1513-1-0"
       inkscape:connector-curvature="0" /></g></svg>