<?xml version="1.0" encoding="UTF-8" standalone="no"?>
<!-- Created with Inkscape (http://www.inkscape.org/) -->

<svg
   xmlns:osb="http://www.openswatchbook.org/uri/2009/osb"
   xmlns:dc="http://purl.org/dc/elements/1.1/"
   xmlns:cc="http://creativecommons.org/ns#"
   xmlns:rdf="http://www.w3.org/1999/02/22-rdf-syntax-ns#"
   xmlns:svg="http://www.w3.org/2000/svg"
   xmlns="http://www.w3.org/2000/svg"
   xmlns:sodipodi="http://sodipodi.sourceforge.net/DTD/sodipodi-0.dtd"
   xmlns:inkscape="http://www.inkscape.org/namespaces/inkscape"
   version="1.1"
   id="svg2"
   xml:space="preserve"
   width="1344"
   height="672"
   viewBox="0 0 1344 672"
   sodipodi:docname="1FCA1-40b05t10k-pdbs-weakness-clustering.svg"
   inkscape:version="0.92.3 (2405546, 2018-03-11)"><metadata
     id="metadata8"><rdf:RDF><cc:Work
         rdf:about=""><dc:format>image/svg+xml</dc:format><dc:type
           rdf:resource="http://purl.org/dc/dcmitype/StillImage" /><dc:title /></cc:Work></rdf:RDF></metadata><defs
     id="defs6"><linearGradient
       id="linearGradient968"
       osb:paint="solid"><stop
         style="stop-color:#ff0000;stop-opacity:1;"
         offset="0"
         id="stop966" /></linearGradient><linearGradient
       id="linearGradient960"
       osb:paint="solid"><stop
         style="stop-color:#ff0000;stop-opacity:1;"
         offset="0"
         id="stop958" /></linearGradient><linearGradient
       id="linearGradient952"
       osb:paint="solid"><stop
         style="stop-color:#ff0000;stop-opacity:1;"
         offset="0"
         id="stop950" /></linearGradient><linearGradient
       id="linearGradient946"
       osb:paint="solid"><stop
         style="stop-color:#ff0000;stop-opacity:1;"
         offset="0"
         id="stop944" /></linearGradient><linearGradient
       id="linearGradient940"
       osb:paint="solid"><stop
         style="stop-color:#ff0000;stop-opacity:1;"
         offset="0"
         id="stop938" /></linearGradient><clipPath
       clipPathUnits="userSpaceOnUse"
       id="clipPath20"><path
         d="M 59.04,73.44 H 977.76 V 444.96 H 59.04 Z"
         id="path18"
         inkscape:connector-curvature="0" /></clipPath></defs><sodipodi:namedview
     pagecolor="#ffffff"
     bordercolor="#666666"
     borderopacity="1"
     objecttolerance="10"
     gridtolerance="10"
     guidetolerance="10"
     inkscape:pageopacity="0"
     inkscape:pageshadow="2"
     inkscape:window-width="1366"
     inkscape:window-height="732"
     id="namedview4"
     showgrid="false"
     inkscape:zoom="0.5598198"
     inkscape:cx="547.94892"
     inkscape:cy="404.66205"
     inkscape:window-x="-2"
     inkscape:window-y="-2"
     inkscape:window-maximized="1"
     inkscape:current-layer="g10" /><g
     id="g10"
     inkscape:groupmode="layer"
     inkscape:label="1FCA1-40b05t10k-pdbs-weakness"
     transform="matrix(1.3333333,0,0,-1.3333333,0,672)"><g
   id="g12" /><g
   id="g14"><g
     id="g16"
     clip-path="url(#clipPath20)"><path
       d="m 93.07,142.72 3.57,-2.23 3.58,-3.34 3.57,-1.76 3.57,-2.44 3.58,-3.51 3.57,-2.65 3.58,0.42 3.57,-0.62 3.57,0.34 3.58,0.72 3.57,0.59 3.58,0.41 3.57,0.38 3.58,0.52 3.57,1.03 3.57,1.79 3.58,3.02 3.57,-1.23 3.58,-1.24 3.57,-0.76 3.58,-0.24 3.57,0.1 3.57,0.35 3.58,0.44 3.57,0.69 3.58,0.86 3.57,0.83 3.58,0.72 3.57,0.72 3.57,0.69 3.58,0.62 3.57,0.52 3.58,0.48 3.57,0.51 3.57,0.76 3.58,0.62 3.57,0.31 3.58,0.14 3.57,-0.42 3.58,2.07 3.57,1.99 3.57,-0.24 3.58,-0.34 3.57,-0.07 3.58,0.14 3.57,0.2 3.58,0.38 3.57,0.24 3.57,0.48 3.58,0.69 3.57,0.69 3.58,1.1 3.57,2.89 3.58,2.65 3.57,0.31 3.57,-3.2 3.58,-4.92 3.57,-2.51 3.58,3.03 3.57,2.16 3.57,0.24 3.58,-1.41 3.57,-1.96 3.58,-1.1 3.57,1.86 3.58,3.37 3.57,4.54 3.57,5.61 3.58,5.78 3.57,6.4 3.58,6.5 3.57,6.78 3.58,7.12 3.57,7.43 3.57,7.6 3.58,5.61 3.57,-4.82 3.58,10.42 3.57,14.25 3.58,13.38 3.57,6.6 3.57,-16.41 3.58,-14.72 3.57,-11.7 3.58,-7.67 3.57,13.01 3.57,17.71 3.58,32.78 3.57,13.21 3.58,-5.64 3.57,-3.61 3.58,2.96 3.57,-16.2 3.57,-17.86 3.58,-17.61 3.57,-14.1 3.58,-11.53 3.57,-9.77 3.58,2.93 3.57,2.58 3.57,3.23 3.58,2.92 3.57,1.38 3.58,0.14 3.57,-1.1 3.58,-2.48 3.57,-2.44 3.57,-3.65 3.58,3.92 3.57,0.07 3.58,-4.99 3.57,-0.17 3.57,-2.92 3.58,-9.01 3.57,5.84 3.58,11.6 3.57,6.57 3.58,21.46 3.57,6.23 3.57,-15.28 3.58,-18.3 3.57,-13.89 3.58,0.27 3.57,0.69 3.58,1.07 3.57,1.3 3.57,0.93 3.58,-0.31 3.57,-2.16 3.58,-4.51 3.57,-6.64 3.57,-5.99 3.58,-5.22 3.57,-4.03 3.58,0.17 3.57,0.76 3.58,1.27 3.57,2.34 3.57,2.2 3.58,2.17 3.57,2.82 3.58,2.31 3.57,2.03 3.58,1.92 3.57,1.24 3.57,1.07 3.58,4.3 3.57,3.16 3.58,1.45 3.57,-0.28 3.58,-1.55 3.57,-2.3 3.57,-3.13 3.58,-3.51 3.57,6.05 3.58,5.4 3.57,4.41 3.57,2.89 3.58,1.24 3.57,-0.93 3.58,-3.82 3.57,-6.54 3.58,-7.57 3.57,-6.88 3.57,-5.95 3.58,-4.68 3.57,4.58 3.58,5.92 3.57,6.95 3.58,7.7 3.57,7.67 3.57,5.99 3.58,3.85 3.57,1.14 3.58,-1.97 3.57,-4.23 3.58,-6.15 3.57,2.68 3.57,6.16 3.58,6.02 3.57,5.05 3.58,5.23 3.57,2.86 3.57,-20.71 3.58,-2.65 3.57,-3.85 3.58,-7.5 3.57,-9.15 3.58,-2.51 3.57,-2.58 3.57,-2.65 3.58,-2.69 3.57,-2.64 3.58,-2.62 3.57,-2.51 3.58,-2.34 3.57,1.48 3.57,1.51 3.58,1.52 3.57,2.65 3.58,4.47 3.57,4.26 3.58,2.62 3.57,1.61 3.57,-0.17 3.58,0.83 3.57,7.91 3.58,8.53 3.57,6.12 3.57,7.3 3.58,10.32 3.57,22.43 3.58,62.91 3.57,83.84 3.58,20.22 3.57,-1.37 3.57,-22.74 3.58,17.85 3.57,-27.14 3.58,-41.31 3.57,36.15 3.58,28.38 3.57,-12.69 3.57,18.06 3.58,-5.44 3.57,-23.35 3.58,30.92 3.57,19.85 3.58,-3.23 3.57,6.08 3.57,-10.21 3.58,-21.5 3.57,17.78 3.58,8.4 3.57,-3.17 3.57,12.18 3.58,4.54 h 3.57"
       style="fill:none;stroke:#000000;stroke-width:0.75;stroke-linecap:round;stroke-linejoin:round;stroke-miterlimit:10;stroke-dasharray:none;stroke-opacity:1"
       id="path22"
       inkscape:connector-curvature="0" /></g></g><g
   id="g24"><path
   d="M 93.07,73.44 H 807.91"
   style="fill:none;stroke:#000000;stroke-width:0.75;stroke-linecap:round;stroke-linejoin:round;stroke-miterlimit:10;stroke-dasharray:none;stroke-opacity:1"
   id="path26"
   inkscape:connector-curvature="0" /><path
   d="m 93.07,73.44 v -7.2"
   style="fill:none;stroke:#000000;stroke-width:0.75;stroke-linecap:round;stroke-linejoin:round;stroke-miterlimit:10;stroke-dasharray:none;stroke-opacity:1"
   id="path28"
   inkscape:connector-curvature="0" /><path
   d="m 271.78,73.44 v -7.2"
   style="fill:none;stroke:#000000;stroke-width:0.75;stroke-linecap:round;stroke-linejoin:round;stroke-miterlimit:10;stroke-dasharray:none;stroke-opacity:1"
   id="path30"
   inkscape:connector-curvature="0" /><path
   d="m 450.49,73.44 v -7.2"
   style="fill:none;stroke:#000000;stroke-width:0.75;stroke-linecap:round;stroke-linejoin:round;stroke-miterlimit:10;stroke-dasharray:none;stroke-opacity:1"
   id="path32"
   inkscape:connector-curvature="0" /><path
   d="m 629.2,73.44 v -7.2"
   style="fill:none;stroke:#000000;stroke-width:0.75;stroke-linecap:round;stroke-linejoin:round;stroke-miterlimit:10;stroke-dasharray:none;stroke-opacity:1"
   id="path34"
   inkscape:connector-curvature="0" /><path
   d="m 807.91,73.44 v -7.2"
   style="fill:none;stroke:#000000;stroke-width:0.75;stroke-linecap:round;stroke-linejoin:round;stroke-miterlimit:10;stroke-dasharray:none;stroke-opacity:1"
   id="path36"
   inkscape:connector-curvature="0" /><text
   transform="matrix(1,0,0,-1,88.06,47.52)"
   style="font-variant:normal;font-weight:normal;font-size:18px;font-family:Helvetica;-inkscape-font-specification:Helvetica;writing-mode:lr-tb;fill:#000000;fill-opacity:1;fill-rule:nonzero;stroke:none"
   id="text40"><tspan
     x="0"
     y="0"
     id="tspan38">0</tspan></text>



<text
   transform="matrix(1,0,0,-1,261.77,47.52)"
   style="font-variant:normal;font-weight:normal;font-size:18px;font-family:Helvetica;-inkscape-font-specification:Helvetica;writing-mode:lr-tb;fill:#000000;fill-opacity:1;fill-rule:nonzero;stroke:none"
   id="text44"><tspan
     x="0 10.008"
     y="0"
     sodipodi:role="line"
     id="tspan42">50</tspan></text>



<text
   transform="matrix(1,0,0,-1,435.48,47.52)"
   style="font-variant:normal;font-weight:normal;font-size:18px;font-family:Helvetica;-inkscape-font-specification:Helvetica;writing-mode:lr-tb;fill:#000000;fill-opacity:1;fill-rule:nonzero;stroke:none"
   id="text48"><tspan
     x="0 10.008 20.016001"
     y="0"
     sodipodi:role="line"
     id="tspan46">100</tspan></text>



<text
   transform="matrix(1,0,0,-1,614.19,47.52)"
   style="font-variant:normal;font-weight:normal;font-size:18px;font-family:Helvetica;-inkscape-font-specification:Helvetica;writing-mode:lr-tb;fill:#000000;fill-opacity:1;fill-rule:nonzero;stroke:none"
   id="text52"><tspan
     x="0 10.008 20.016001"
     y="0"
     sodipodi:role="line"
     id="tspan50">150</tspan></text>



<text
   transform="matrix(1,0,0,-1,792.9,47.52)"
   style="font-variant:normal;font-weight:normal;font-size:18px;font-family:Helvetica;-inkscape-font-specification:Helvetica;writing-mode:lr-tb;fill:#000000;fill-opacity:1;fill-rule:nonzero;stroke:none"
   id="text56"><tspan
     x="0 10.008 20.016001"
     y="0"
     sodipodi:role="line"
     id="tspan54">200</tspan></text>



<path
   d="m 59.04,87.2 v 344"
   style="fill:none;stroke:#000000;stroke-width:0.75;stroke-linecap:round;stroke-linejoin:round;stroke-miterlimit:10;stroke-dasharray:none;stroke-opacity:1"
   id="path58"
   inkscape:connector-curvature="0" /><path
   d="m 59.04,87.2 h -7.2"
   style="fill:none;stroke:#000000;stroke-width:0.75;stroke-linecap:round;stroke-linejoin:round;stroke-miterlimit:10;stroke-dasharray:none;stroke-opacity:1"
   id="path60"
   inkscape:connector-curvature="0" /><path
   d="m 59.04,156 h -7.2"
   style="fill:none;stroke:#000000;stroke-width:0.75;stroke-linecap:round;stroke-linejoin:round;stroke-miterlimit:10;stroke-dasharray:none;stroke-opacity:1"
   id="path62"
   inkscape:connector-curvature="0" /><path
   d="m 59.04,224.8 h -7.2"
   style="fill:none;stroke:#000000;stroke-width:0.75;stroke-linecap:round;stroke-linejoin:round;stroke-miterlimit:10;stroke-dasharray:none;stroke-opacity:1"
   id="path64"
   inkscape:connector-curvature="0" /><path
   d="m 59.04,293.6 h -7.2"
   style="fill:none;stroke:#000000;stroke-width:0.75;stroke-linecap:round;stroke-linejoin:round;stroke-miterlimit:10;stroke-dasharray:none;stroke-opacity:1"
   id="path66"
   inkscape:connector-curvature="0" /><path
   d="m 59.04,362.4 h -7.2"
   style="fill:none;stroke:#000000;stroke-width:0.75;stroke-linecap:round;stroke-linejoin:round;stroke-miterlimit:10;stroke-dasharray:none;stroke-opacity:1"
   id="path68"
   inkscape:connector-curvature="0" /><path
   d="m 59.04,431.2 h -7.2"
   style="fill:none;stroke:#000000;stroke-width:0.75;stroke-linecap:round;stroke-linejoin:round;stroke-miterlimit:10;stroke-dasharray:none;stroke-opacity:1"
   id="path70"
   inkscape:connector-curvature="0" /><text
   transform="matrix(0,1,1,0,41.76,74.69)"
   style="font-variant:normal;font-weight:normal;font-size:18px;font-family:Helvetica;-inkscape-font-specification:Helvetica;writing-mode:lr-tb;fill:#000000;fill-opacity:1;fill-rule:nonzero;stroke:none"
   id="text74"><tspan
     x="0 10.008 15.012"
     y="0"
     sodipodi:role="line"
     id="tspan72">0.0</tspan></text>



<text
   transform="matrix(0,1,1,0,41.76,143.49)"
   style="font-variant:normal;font-weight:normal;font-size:18px;font-family:Helvetica;-inkscape-font-specification:Helvetica;writing-mode:lr-tb;fill:#000000;fill-opacity:1;fill-rule:nonzero;stroke:none"
   id="text78"><tspan
     x="0 10.008 15.012"
     y="0"
     sodipodi:role="line"
     id="tspan76">0.2</tspan></text>



<text
   transform="matrix(0,1,1,0,41.76,212.29)"
   style="font-variant:normal;font-weight:normal;font-size:18px;font-family:Helvetica;-inkscape-font-specification:Helvetica;writing-mode:lr-tb;fill:#000000;fill-opacity:1;fill-rule:nonzero;stroke:none"
   id="text82"><tspan
     x="0 10.008 15.012"
     y="0"
     sodipodi:role="line"
     id="tspan80">0.4</tspan></text>



<text
   transform="matrix(0,1,1,0,41.76,281.09)"
   style="font-variant:normal;font-weight:normal;font-size:18px;font-family:Helvetica;-inkscape-font-specification:Helvetica;writing-mode:lr-tb;fill:#000000;fill-opacity:1;fill-rule:nonzero;stroke:none"
   id="text86"><tspan
     x="0 10.008 15.012"
     y="0"
     sodipodi:role="line"
     id="tspan84">0.6</tspan></text>



<text
   transform="matrix(0,1,1,0,41.76,349.89)"
   style="font-variant:normal;font-weight:normal;font-size:18px;font-family:Helvetica;-inkscape-font-specification:Helvetica;writing-mode:lr-tb;fill:#000000;fill-opacity:1;fill-rule:nonzero;stroke:none"
   id="text90"><tspan
     x="0 10.008 15.012"
     y="0"
     sodipodi:role="line"
     id="tspan88">0.8</tspan></text>



<text
   transform="matrix(0,1,1,0,41.76,418.69)"
   style="font-variant:normal;font-weight:normal;font-size:18px;font-family:Helvetica;-inkscape-font-specification:Helvetica;writing-mode:lr-tb;fill:#000000;fill-opacity:1;fill-rule:nonzero;stroke:none"
   id="text94"><tspan
     x="0 10.008 15.012"
     y="0"
     sodipodi:role="line"
     id="tspan92">1.0</tspan></text>



<path
   d="M 59.04,73.44 H 977.76 V 444.96 H 59.04 V 73.44"
   style="fill:none;stroke:#000000;stroke-width:0.75;stroke-linecap:round;stroke-linejoin:round;stroke-miterlimit:10;stroke-dasharray:none;stroke-opacity:1"
   id="path96"
   inkscape:connector-curvature="0" /></g><g
   id="g98"><text
   transform="matrix(1,0,0,-1,476.34,18.72)"
   style="font-variant:normal;font-weight:normal;font-size:18px;font-family:Helvetica;-inkscape-font-specification:Helvetica;writing-mode:lr-tb;fill:#000000;fill-opacity:1;fill-rule:nonzero;stroke:none"
   id="text102"><tspan
     x="0 10.998 16.812 26.82 41.813999 51.821999 56.826 69.821999 79.110001"
     y="0"
     sodipodi:role="line"
     id="tspan100">Frame No.</tspan></text>



<text
   transform="matrix(0,1,1,0,12.96,218.94)"
   style="font-variant:normal;font-weight:normal;font-size:18px;font-family:Helvetica;-inkscape-font-specification:Helvetica;writing-mode:lr-tb;fill:#000000;fill-opacity:1;fill-rule:nonzero;stroke:none"
   id="text106"><tspan
     x="0 10.998 25.992001 36.504002 45.504002 54.504002 64.512001 70.505997"
     y="0"
     sodipodi:role="line"
     id="tspan104">TM−score</tspan></text>



</g><circle
   style="fill:#ff0000;fill-rule:evenodd;stroke-width:3.30882382"
   id="path122-7"
   cx="285.25473"
   cy="-156.67804"
   r="5.625"
   transform="scale(1,-1)" /><circle
   style="fill:#ff0000;fill-rule:evenodd;stroke-width:4.4117651"
   id="path122-7-3"
   cx="574.51312"
   cy="-158.34296"
   transform="scale(1,-1)"
   r="7.5" /><circle
   style="fill:#ff0000;fill-rule:evenodd;stroke-width:3.30882382"
   id="path122-7-6"
   cx="336.38382"
   cy="-165.20647"
   r="5.625"
   transform="scale(1,-1)" /><circle
   style="fill:#0000ff;fill-opacity:1;fill-rule:evenodd;stroke-width:4.4117651"
   id="path122-7-2"
   cx="462.93149"
   cy="-198.65677"
   transform="scale(1,-1)"
   r="7.5"
   inkscape:transform-center-x="-6.9470343"
   inkscape:transform-center-y="-13.26252" /><circle
   style="fill:#0000ff;fill-opacity:1;fill-rule:evenodd;stroke-width:3.30882382"
   id="path122-7-2-2"
   cx="714.44971"
   cy="-203.97432"
   r="5.625"
   transform="scale(1,-1)" /><circle
   style="fill:#0000ff;fill-opacity:1;fill-rule:evenodd;stroke-width:3.30882382"
   id="path122-7-2-7"
   cx="835.3233"
   cy="-194.26125"
   r="5.625"
   transform="scale(1,-1)" /><text
   xml:space="preserve"
   style="font-style:normal;font-weight:normal;font-size:12px;line-height:1.25;font-family:sans-serif;letter-spacing:0px;word-spacing:0px;fill:#000000;fill-opacity:1;stroke:none;stroke-width:0.75"
   x="398.77515"
   y="-413.61456"
   id="text4732"
   transform="scale(1,-1)"><tspan
     sodipodi:role="line"
     id="tspan4730"
     x="398.77515"
     y="-402.99738"
     style="stroke-width:0.75" /></text>


<flowRoot
   xml:space="preserve"
   id="flowRoot4742"
   style="font-style:normal;font-weight:normal;font-size:29.33333328px;line-height:1.25;font-family:sans-serif;letter-spacing:0px;word-spacing:0px;fill:#000000;fill-opacity:1;stroke:none;"
   transform="matrix(0.75000002,0,0,-0.75000002,50.72377,518.02999)"><flowRegion
     id="flowRegion4744"
     style="font-size:29.33333328px;"><rect
       id="rect4746"
       width="53.927868"
       height="45.787804"
       x="300.16455"
       y="500.04132"
       style="font-size:29.33333328px;" /></flowRegion><flowPara
     id="flowPara4748"
     style="font-weight:bold;font-size:29.33333328px;">C<flowSpan
   style="font-size:29.33333328px;baseline-shift:sub;"
   id="flowSpan4758">1</flowSpan></flowPara></flowRoot><text
   xml:space="preserve"
   style="font-style:normal;font-weight:normal;font-size:12px;line-height:1.25;font-family:sans-serif;letter-spacing:0px;word-spacing:0px;fill:#000000;fill-opacity:1;stroke:none;stroke-width:0.75"
   x="239.62289"
   y="-118.28517"
   id="text4752"
   transform="scale(1,-1)"><tspan
     sodipodi:role="line"
     id="tspan4750"
     x="239.62289"
     y="-107.66798"
     style="stroke-width:0.75" /></text>


<text
   xml:space="preserve"
   style="font-style:normal;font-weight:normal;font-size:12px;line-height:1.25;font-family:sans-serif;letter-spacing:0px;word-spacing:0px;fill:#000000;fill-opacity:1;stroke:none;stroke-width:0.75"
   x="241.14915"
   y="-107.79213"
   id="text4756"
   transform="scale(1,-1)"><tspan
     sodipodi:role="line"
     id="tspan4754"
     x="241.14915"
     y="-97.174942"
     style="stroke-width:0.75" /></text>


<flowRoot
   xml:space="preserve"
   id="flowRoot4742-9"
   style="font-style:normal;font-weight:normal;font-size:29.33333328px;line-height:1.25;font-family:sans-serif;letter-spacing:0px;word-spacing:0px;fill:#000000;fill-opacity:1;stroke:none;"
   transform="matrix(0.75000002,0,0,-0.75000002,108.93844,529.85617)"><flowRegion
     id="flowRegion4744-3"
     style="font-size:29.33333328px;"><rect
       id="rect4746-6"
       width="53.927868"
       height="45.787804"
       x="300.16455"
       y="500.04132"
       style="font-size:29.33333328px;" /></flowRegion><flowPara
     id="flowPara4748-0"
     style="font-weight:bold;font-size:29.33333328px;">C<flowSpan
   style="font-size:29.33333328px;baseline-shift:sub;"
   id="flowSpan4758-6">2</flowSpan></flowPara></flowRoot><flowRoot
   xml:space="preserve"
   id="flowRoot4742-2"
   style="font-style:normal;font-weight:normal;font-size:29.33333328px;line-height:1.25;font-family:sans-serif;letter-spacing:0px;word-spacing:0px;fill:#000000;fill-opacity:1;stroke:none;"
   transform="matrix(0.75000002,0,0,-0.75000002,229.86474,604.66735)"><flowRegion
     id="flowRegion4744-6"
     style="font-size:29.33333328px;"><rect
       id="rect4746-1"
       width="53.927868"
       height="45.787804"
       x="300.16455"
       y="500.04132"
       style="font-size:29.33333328px;" /></flowRegion><flowPara
     id="flowPara4748-8"
     style="font-weight:bold;font-size:29.33333328px;">C<flowSpan
   style="font-size:29.33333328px;baseline-shift:sub;"
   id="flowSpan4758-7">3</flowSpan></flowPara></flowRoot><flowRoot
   xml:space="preserve"
   id="flowRoot4742-92"
   style="font-style:normal;font-weight:normal;font-size:29.33333328px;line-height:1.25;font-family:sans-serif;letter-spacing:0px;word-spacing:0px;fill:#000000;fill-opacity:1;stroke:none;"
   transform="matrix(0.75000002,0,0,-0.75000002,340.51864,523.01046)"><flowRegion
     id="flowRegion4744-0"
     style="font-size:29.33333328px;"><rect
       id="rect4746-2"
       width="53.927868"
       height="45.787804"
       x="300.16455"
       y="500.04132"
       style="font-size:29.33333328px;" /></flowRegion><flowPara
     id="flowPara4748-3"
     style="font-weight:bold;font-size:29.33333328px;">C<flowSpan
   style="font-size:29.33333328px;baseline-shift:sub;"
   id="flowSpan4758-75">4</flowSpan></flowPara></flowRoot><flowRoot
   xml:space="preserve"
   id="flowRoot4742-922"
   style="font-style:normal;font-weight:normal;font-size:29.33333328px;line-height:1.25;font-family:sans-serif;letter-spacing:0px;word-spacing:0px;fill:#000000;fill-opacity:1;stroke:none;"
   transform="matrix(0.75000002,0,0,-0.75000002,481.54046,606.03812)"><flowRegion
     id="flowRegion4744-8"
     style="font-size:29.33333328px;"><rect
       id="rect4746-9"
       width="53.927868"
       height="45.787804"
       x="300.16455"
       y="500.04132"
       style="font-size:29.33333328px;" /></flowRegion><flowPara
     id="flowPara4748-7"
     style="font-weight:bold;font-size:29.33333328px;">C<flowSpan
   style="font-size:29.33333328px;baseline-shift:sub;"
   id="flowSpan4758-3">5</flowSpan></flowPara></flowRoot><flowRoot
   xml:space="preserve"
   id="flowRoot4742-6"
   style="font-style:normal;font-weight:normal;font-size:29.33333328px;line-height:1.25;font-family:sans-serif;letter-spacing:0px;word-spacing:0px;fill:#000000;fill-opacity:1;stroke:none;"
   transform="matrix(0.75000002,0,0,-0.75000002,594.66506,606.07346)"><flowRegion
     id="flowRegion4744-1"
     style="font-size:29.33333328px;"><rect
       id="rect4746-29"
       width="53.927868"
       height="45.787804"
       x="300.16455"
       y="500.04132"
       style="font-size:29.33333328px;" /></flowRegion><flowPara
     id="flowPara4748-31"
     style="font-weight:bold;font-size:29.33333328px;">C<flowSpan
   style="font-size:29.33333328px;baseline-shift:sub;"
   id="flowSpan4758-9">6</flowSpan></flowPara></flowRoot><ellipse
   style="opacity:0.00000001;vector-effect:none;fill:#ffffff;fill-opacity:1;fill-rule:evenodd;stroke:#ff0000;stroke-width:1.5;stroke-linecap:butt;stroke-linejoin:miter;stroke-miterlimit:4;stroke-dasharray:12.00000032, 6.00000015999999992;stroke-dashoffset:0;stroke-opacity:1"
   id="path964"
   cx="3.8156509"
   cy="-507.48163"
   transform="scale(1,-1)"
   rx="66.392334"
   ry="31.28834" /><rect
   style="opacity:0;fill:#ffffff;fill-opacity:1;fill-rule:nonzero;stroke:#ff0000;stroke-width:1.5;stroke-miterlimit:4;stroke-dasharray:9.00000024, 9.00000024;stroke-dashoffset:0;stroke-opacity:1"
   id="rect972"
   width="83.944336"
   height="59.524162"
   x="-198.41386"
   y="-416.66913"
   transform="scale(1,-1)"
   ry="6.7669201" /><rect
   style="opacity:0;fill:#ffffff;fill-opacity:1;fill-rule:nonzero;stroke:#ff0000;stroke-width:1.5;stroke-miterlimit:4;stroke-dasharray:9.00000024, 9.00000024;stroke-dashoffset:0;stroke-opacity:1"
   id="rect974"
   width="120.57458"
   height="143.46849"
   x="-125.15336"
   y="-375.46008"
   transform="scale(1,-1)"
   ry="6.7669201" /><rect
   style="opacity:0;fill:#ffffff;fill-opacity:1;fill-rule:nonzero;stroke:#ff0000;stroke-width:1.5;stroke-miterlimit:4;stroke-dasharray:9.00000024, 9.00000024;stroke-dashoffset:0;stroke-opacity:1"
   id="rect976"
   width="15.262605"
   height="36.630253"
   x="-65.629204"
   y="-364.77625"
   transform="scale(1,-1)"
   ry="6.7669201" /><rect
   style="opacity:0;fill:#ffffff;fill-opacity:1;fill-rule:nonzero;stroke:#ff0000;stroke-width:1.5;stroke-miterlimit:4;stroke-dasharray:9.00000024, 9.00000024;stroke-dashoffset:0;stroke-opacity:1"
   id="rect978"
   width="107.88033"
   height="101.46492"
   x="-48.840336"
   y="-532.66492"
   transform="scale(1,-1)"
   ry="6.7669201" /><rect
   style="opacity:0;fill:#ff0000;fill-opacity:0;fill-rule:nonzero;stroke:#ff0000;stroke-width:1.5;stroke-miterlimit:4;stroke-dasharray:9.00000024, 9.00000024000000032;stroke-dashoffset:0;stroke-opacity:1"
   id="rect1058"
   width="149.57353"
   height="102.25945"
   x="-238.09665"
   y="-578.4527"
   transform="scale(1,-1)"
   ry="6.7669201" /><path
   style="opacity:1;vector-effect:none;fill:#ff0000;fill-opacity:0;fill-rule:evenodd;stroke:#ff0000;stroke-width:0.75000002;stroke-linecap:butt;stroke-linejoin:miter;stroke-miterlimit:4;stroke-dasharray:6.00000015,3.00000008;stroke-dashoffset:0;stroke-opacity:1"
   id="path1134"
   transform="scale(1,-1)"
   sodipodi:type="arc"
   sodipodi:cx="436.70389"
   sodipodi:cy="-142.90614"
   sodipodi:rx="197.09389"
   sodipodi:ry="33.451569"
   sodipodi:start="5.6961787"
   sodipodi:end="5.5992431"
   sodipodi:open="true"
   d="m 600.80472,-161.434 a 197.09389,33.451569 0 0 1 -50.99184,45.92258 197.09389,33.451569 0 0 1 -271.72822,-7.53923 197.09389,33.451569 0 0 1 37.82307,-46.28795 197.09389,33.451569 0 0 1 273.56124,5.29597" /><path
   style="opacity:1;vector-effect:none;fill:#0000ff;fill-opacity:0;fill-rule:evenodd;stroke:#0000ff;stroke-width:0.75000002;stroke-linecap:butt;stroke-linejoin:miter;stroke-miterlimit:4;stroke-dasharray:6.00000015,3.00000008;stroke-dashoffset:0;stroke-opacity:1"
   id="path1134-3"
   sodipodi:type="arc"
   sodipodi:cx="646.45178"
   sodipodi:cy="-210.68829"
   sodipodi:rx="217.07245"
   sodipodi:ry="42.901459"
   sodipodi:start="5.6961787"
   sodipodi:end="5.5992431"
   sodipodi:open="true"
   d="m 827.18682,-234.45018 a 217.07245,42.901459 0 0 1 -56.16068,58.89547 217.07245,42.901459 0 0 1 -299.27214,-9.66902 217.07245,42.901459 0 0 1 41.65703,-59.36405 217.07245,42.901459 0 0 1 301.29097,6.79205"
   transform="scale(1,-1)" /><flowRoot
   xml:space="preserve"
   id="flowRoot108-6"
   style="font-style:normal;font-variant:normal;font-weight:bold;font-stretch:normal;font-size:53.33333206px;line-height:1.25;font-family:sans-serif;-inkscape-font-specification:'sans-serif Bold';letter-spacing:0px;word-spacing:0px;fill:#000000;fill-opacity:1;stroke:none"
   transform="matrix(0.75000002,0,0,-0.75000002,237.89028,563.72656)"><flowRegion
     id="flowRegion110-7"
     style="font-style:normal;font-variant:normal;font-weight:bold;font-stretch:normal;font-size:53.33333206px;font-family:sans-serif;-inkscape-font-specification:'sans-serif Bold';fill:#000000"><rect
       id="rect112-5"
       width="217.13446"
       height="64.604912"
       x="181.31049"
       y="191.3833"
       style="font-style:normal;font-variant:normal;font-weight:bold;font-stretch:normal;font-size:53.33333206px;font-family:sans-serif;-inkscape-font-specification:'sans-serif Bold';fill:#000000" /></flowRegion><flowPara
     id="flowPara114-3">R1</flowPara></flowRoot><path
   style="opacity:0;fill:none;fill-opacity:0;fill-rule:nonzero;stroke:#000000;stroke-width:1.5;stroke-miterlimit:4;stroke-dasharray:9.00000024, 9.00000024;stroke-dashoffset:0;stroke-opacity:1"
   id="path1214"
   d="m 473.33081,229.46176 c 8.92573,6.61771 17.78186,9.90689 27.81205,13.3588 11.04075,3.49645 22.42312,5.76416 33.79003,7.90315 14.61783,2.56962 29.16508,5.57577 43.62687,8.91343 7.73815,1.78943 15.28518,4.21799 22.77665,6.82499 4.93861,1.90285 13.90157,6.67612 -7.73927,-4.76535 -0.73924,-0.39083 1.3866,0.93577 2.06122,1.42985 1.52996,1.12048 2.82336,2.20108 4.2961,3.39643 4.62572,3.7558 8.93666,7.87242 13.22564,12.00184 4.85187,4.62377 9.50688,9.43544 14.01885,14.38927 2.99462,3.33743 6.19027,6.38557 9.99564,8.76157 6.46628,2.50656 11.85797,7.52229 18.35821,10.11083 1.48601,0.59176 2.98506,1.07626 4.45048,1.72475 3.12275,1.24355 6.04713,2.84025 9.00015,4.42569 0,0 -12.28391,-9.89067 -12.28391,-9.89067 v 0 c -2.9525,-1.60798 -6.00327,-2.99194 -9.09837,-4.30386 -5.83062,-2.30515 -19.45486,-8.94262 4.21369,3.60206 -1.05694,-0.64397 -2.1598,-1.21323 -3.19556,-1.89075 -2.74794,-1.79752 -4.86605,-4.38181 -7.25746,-6.59481 -4.5694,-4.92714 -9.1475,-9.84309 -14.01521,-14.48089 -4.23152,-4.15816 -8.50925,-8.27849 -13.06721,-12.08153 -7.62019,-6.26131 -15.8223,-12.29238 -25.28259,-15.41368 -7.18644,-2.35321 -14.48753,-4.30271 -21.87331,-5.9336 -14.50158,-3.19598 -29.04517,-6.22638 -43.65632,-8.8792 -11.55702,-2.28188 -23.12469,-4.73426 -34.28501,-8.56553 -5.40734,-1.99054 -2.08187,-0.73479 -7.0446,-2.67537 -0.88736,-0.34698 -1.7787,-0.68377 -2.66462,-1.03443 -0.71331,-0.28234 -2.78237,-1.27284 -2.13291,-0.86453 7.22151,4.54016 16.40755,9.40025 10.85584,6.45111 0,0 -14.88507,-5.91957 -14.88507,-5.91957 z"
   inkscape:connector-curvature="0" /><path
   style="opacity:1;vector-effect:none;fill:none;fill-opacity:1;stroke:#000000;stroke-width:0.75000002;stroke-linecap:butt;stroke-linejoin:miter;stroke-miterlimit:4;stroke-dasharray:6.00000015,3.00000008;stroke-dashoffset:0;stroke-opacity:1"
   d="m 289.37885,172.15361 101.81848,199.61782 v 0 0.66985 0"
   id="path1321"
   inkscape:connector-curvature="0" /><path
   style="opacity:1;vector-effect:none;fill:none;fill-opacity:1;stroke:#000000;stroke-width:0.75000002;stroke-linecap:butt;stroke-linejoin:miter;stroke-miterlimit:4;stroke-dasharray:6.00000015,3.00000008;stroke-dashoffset:0;stroke-opacity:1"
   d="m 336.93879,179.52206 63.63655,188.90007 h 0.66986"
   id="path1323"
   inkscape:connector-curvature="0" /><path
   style="opacity:1;vector-effect:none;fill:none;fill-opacity:1;stroke:#000000;stroke-width:0.75000002;stroke-linecap:butt;stroke-linejoin:miter;stroke-miterlimit:4;stroke-dasharray:6.00000015,3.00000008;stroke-dashoffset:0;stroke-opacity:1"
   d="M 570.71939,169.47418 410.62322,369.09199 v 0"
   id="path1325"
   inkscape:connector-curvature="0" /><path
   style="opacity:1;vector-effect:none;fill:none;fill-opacity:1;stroke:#000000;stroke-width:0.75000002;stroke-linecap:butt;stroke-linejoin:miter;stroke-miterlimit:4;stroke-dasharray:6.00000015,3.00000008;stroke-dashoffset:0;stroke-opacity:1"
   d="m 482.29807,227.75187 145.35928,149.37842 h 0.66986"
   id="path1327"
   inkscape:connector-curvature="0" /><path
   style="opacity:1;vector-effect:none;fill:none;fill-opacity:1;stroke:#000000;stroke-width:0.75000002;stroke-linecap:butt;stroke-linejoin:miter;stroke-miterlimit:4;stroke-dasharray:6.00000015,3.00000008;stroke-dashoffset:0;stroke-opacity:1"
   d="m 714.06909,238.4696 -68.99542,137.32097 v 0"
   id="path1331"
   inkscape:connector-curvature="0" /><path
   style="opacity:1;vector-effect:none;fill:none;fill-opacity:1;stroke:#000000;stroke-width:0.75000002;stroke-linecap:butt;stroke-linejoin:miter;stroke-miterlimit:4;stroke-dasharray:6.00000015,3.00000008;stroke-dashoffset:0;stroke-opacity:1"
   d="M 656.46126,377.13029 825.21497,234.03966 v 0"
   id="path1333"
   inkscape:connector-curvature="0" /><flowRoot
   xml:space="preserve"
   id="flowRoot108-6-61"
   style="font-style:normal;font-variant:normal;font-weight:bold;font-stretch:normal;font-size:53.33333206px;line-height:1.25;font-family:sans-serif;-inkscape-font-specification:'sans-serif Bold';letter-spacing:0px;word-spacing:0px;fill:#000000;fill-opacity:1;stroke:none"
   transform="matrix(0.75000002,0,0,-0.75000002,479.0684,571.76795)"><flowRegion
     id="flowRegion110-7-8"
     style="font-style:normal;font-variant:normal;font-weight:bold;font-stretch:normal;font-size:53.33333206px;font-family:sans-serif;-inkscape-font-specification:'sans-serif Bold';fill:#000000"><rect
       id="rect112-5-7"
       width="217.13446"
       height="64.604912"
       x="181.31049"
       y="191.3833"
       style="font-style:normal;font-variant:normal;font-weight:bold;font-stretch:normal;font-size:53.33333206px;font-family:sans-serif;-inkscape-font-specification:'sans-serif Bold';fill:#000000" /></flowRegion><flowPara
     id="flowPara114-3-9">R2</flowPara></flowRoot><flowRoot
   xml:space="preserve"
   id="flowRoot108-6-2"
   style="font-style:normal;font-variant:normal;font-weight:bold;font-stretch:normal;font-size:53.33333206px;line-height:1.25;font-family:sans-serif;-inkscape-font-specification:'sans-serif Bold';letter-spacing:0px;word-spacing:0px;fill:#ff0000;fill-opacity:1;stroke:none;"
   transform="matrix(0.75000002,0,0,-0.75000002,43.60982,338.65507)"><flowRegion
     id="flowRegion110-7-0"
     style="font-style:normal;font-variant:normal;font-weight:bold;font-stretch:normal;font-size:53.33333206px;font-family:sans-serif;-inkscape-font-specification:'sans-serif Bold';fill:#ff0000;"><rect
       id="rect112-5-2"
       width="217.13446"
       height="64.604912"
       x="181.31049"
       y="191.3833"
       style="font-style:normal;font-variant:normal;font-weight:bold;font-stretch:normal;font-size:53.33333206px;font-family:sans-serif;-inkscape-font-specification:'sans-serif Bold';fill:#ff0000;" /></flowRegion><flowPara
     id="flowPara114-3-3">G1</flowPara></flowRoot><flowRoot
   xml:space="preserve"
   id="flowRoot108-6-7"
   style="font-style:normal;font-variant:normal;font-weight:bold;font-stretch:normal;font-size:53.33333206px;line-height:1.25;font-family:sans-serif;-inkscape-font-specification:'sans-serif Bold';letter-spacing:0px;word-spacing:0px;fill:#0000ff;fill-opacity:1;stroke:none"
   transform="matrix(0.75000002,0,0,-0.75000002,746.20733,400.23106)"><flowRegion
     id="flowRegion110-7-5"
     style="font-style:normal;font-variant:normal;font-weight:bold;font-stretch:normal;font-size:53.33333206px;font-family:sans-serif;-inkscape-font-specification:'sans-serif Bold';fill:#0000ff"><rect
       id="rect112-5-9"
       width="217.13446"
       height="64.604912"
       x="181.31049"
       y="191.3833"
       style="font-style:normal;font-variant:normal;font-weight:bold;font-stretch:normal;font-size:53.33333206px;font-family:sans-serif;-inkscape-font-specification:'sans-serif Bold';fill:#0000ff" /></flowRegion><flowPara
     id="flowPara114-3-2">G1</flowPara></flowRoot></g></svg>