<?xml version="1.0" encoding="UTF-8" standalone="no"?>
<!-- Created with Inkscape (http://www.inkscape.org/) -->

<svg
   xmlns:dc="http://purl.org/dc/elements/1.1/"
   xmlns:cc="http://creativecommons.org/ns#"
   xmlns:rdf="http://www.w3.org/1999/02/22-rdf-syntax-ns#"
   xmlns:svg="http://www.w3.org/2000/svg"
   xmlns="http://www.w3.org/2000/svg"
   xmlns:sodipodi="http://sodipodi.sourceforge.net/DTD/sodipodi-0.dtd"
   xmlns:inkscape="http://www.inkscape.org/namespaces/inkscape"
   version="1.1"
   id="svg2"
   xml:space="preserve"
   width="234.57214"
   height="354.63605"
   viewBox="0 0 234.57214 354.63605"
   sodipodi:docname="algorithm-hobohm-selection-extraction.svg"
   inkscape:version="0.92.3 (2405546, 2018-03-11)"><metadata
     id="metadata8"><rdf:RDF><cc:Work
         rdf:about=""><dc:format>image/svg+xml</dc:format><dc:type
           rdf:resource="http://purl.org/dc/dcmitype/StillImage" /><dc:title></dc:title></cc:Work></rdf:RDF></metadata><defs
     id="defs6"><marker
       inkscape:stockid="Arrow1Lend"
       orient="auto"
       refY="0"
       refX="0"
       id="Arrow1Lend"
       style="overflow:visible"
       inkscape:isstock="true"><path
         id="path1448"
         d="M 0,0 5,-5 -12.5,0 5,5 Z"
         style="fill:#080000;fill-opacity:1;fill-rule:evenodd;stroke:#080000;stroke-width:1.00000003pt;stroke-opacity:1"
         transform="matrix(-0.8,0,0,-0.8,-10,0)"
         inkscape:connector-curvature="0" /></marker></defs><sodipodi:namedview
     pagecolor="#ffffff"
     bordercolor="#666666"
     borderopacity="1"
     objecttolerance="10"
     gridtolerance="10"
     guidetolerance="10"
     inkscape:pageopacity="0"
     inkscape:pageshadow="2"
     inkscape:window-width="1366"
     inkscape:window-height="732"
     id="namedview4"
     showgrid="false"
     inkscape:zoom="1.330938"
     inkscape:cx="36.882897"
     inkscape:cy="258.8636"
     inkscape:window-x="-2"
     inkscape:window-y="-2"
     inkscape:window-maximized="1"
     inkscape:current-layer="g10" /><g
     id="g10"
     inkscape:groupmode="layer"
     inkscape:label="algorithm-hobohm-selection-extraction"
     transform="matrix(1.3333333,0,0,1.3333333,-7.9472858e-8,1.2715657e-6)"><g
       id="g14"><path
         inkscape:connector-curvature="0"
         id="path16"
         style="fill:none;stroke:#ff0000;stroke-width:0.56692898;stroke-linecap:butt;stroke-linejoin:miter;stroke-miterlimit:4;stroke-dasharray:none;stroke-opacity:1"
         d="M 65.758,20.25 H 97.82" /></g><g
       transform="scale(-1)"
       id="g18"><path
         inkscape:connector-curvature="0"
         id="path20"
         style="fill:#ff0000;fill-opacity:1;fill-rule:evenodd;stroke:#ff0000;stroke-width:0.30236199;stroke-linecap:butt;stroke-linejoin:miter;stroke-miterlimit:4;stroke-dasharray:none;stroke-opacity:1"
         d="m -95.551,-20.25 1.133,-1.133 -3.969,1.133 3.969,1.133 z" /></g><g
       id="g22"><path
         inkscape:connector-curvature="0"
         id="path24"
         style="fill:none;stroke:#000000;stroke-width:0.56692898;stroke-linecap:butt;stroke-linejoin:miter;stroke-miterlimit:4;stroke-dasharray:1.700787, 1.700787;stroke-dashoffset:0;stroke-opacity:1"
         d="m 65.758,27.75 h 28.687 l 5.063,-7.5" /></g><g
       id="g26"><path
         inkscape:connector-curvature="0"
         id="path28"
         style="fill:none;stroke:#000000;stroke-width:0.56692898;stroke-linecap:butt;stroke-linejoin:miter;stroke-miterlimit:4;stroke-dasharray:1.700787, 1.700787;stroke-dashoffset:0;stroke-opacity:1"
         d="m 65.758,35.25 h 30.375 l 3.375,-15" /></g><g
       id="g30"><path
         inkscape:connector-curvature="0"
         id="path32"
         style="fill:none;stroke:#000000;stroke-width:0.56692898;stroke-linecap:butt;stroke-linejoin:miter;stroke-miterlimit:4;stroke-dasharray:1.700787, 1.700787;stroke-dashoffset:0;stroke-opacity:1"
         d="M 65.758,42.75 H 97.82 l 1.688,-22.5" /></g><g
       id="g34"><path
         inkscape:connector-curvature="0"
         id="path36"
         style="fill:#0d05ff;fill-opacity:1;fill-rule:evenodd;stroke:#0000ff;stroke-width:1.66596603;stroke-linecap:butt;stroke-linejoin:miter;stroke-miterlimit:4;stroke-dasharray:none;stroke-opacity:1"
         d="m 63.855,26.574 c 0.512,0.645 0.415,1.586 -0.218,2.106 -0.637,0.519 -1.571,0.422 -2.082,-0.219 -0.516,-0.641 -0.422,-1.582 0.215,-2.106 0.632,-0.519 1.562,-0.425 2.082,0.215" /></g><g
       id="g38"><path
         inkscape:connector-curvature="0"
         id="path40"
         style="fill:#0d05ff;fill-opacity:1;fill-rule:evenodd;stroke:#0000ff;stroke-width:1.66596603;stroke-linecap:butt;stroke-linejoin:miter;stroke-miterlimit:4;stroke-dasharray:none;stroke-opacity:1"
         d="m 63.855,34.449 c 0.512,0.645 0.415,1.586 -0.218,2.106 -0.637,0.519 -1.571,0.422 -2.082,-0.219 -0.516,-0.641 -0.422,-1.582 0.215,-2.106 0.632,-0.519 1.562,-0.425 2.082,0.215" /></g><g
       id="g42"><path
         inkscape:connector-curvature="0"
         id="path44"
         style="fill:#0d05ff;fill-opacity:1;fill-rule:evenodd;stroke:#0000ff;stroke-width:1.66596603;stroke-linecap:butt;stroke-linejoin:miter;stroke-miterlimit:4;stroke-dasharray:none;stroke-opacity:1"
         d="m 63.855,41.762 c 0.512,0.644 0.415,1.586 -0.218,2.105 -0.637,0.52 -1.571,0.422 -2.082,-0.219 -0.516,-0.64 -0.422,-1.582 0.215,-2.105 0.632,-0.52 1.562,-0.426 2.082,0.215" /></g><g
       id="g46"><path
         inkscape:connector-curvature="0"
         id="path48"
         style="fill:none;stroke:#ff0000;stroke-width:0.56692898;stroke-linecap:butt;stroke-linejoin:miter;stroke-miterlimit:4;stroke-dasharray:none;stroke-opacity:1"
         d="M 65.758,50.25 H 97.82" /></g><g
       transform="scale(-1)"
       id="g50"><path
         inkscape:connector-curvature="0"
         id="path52"
         style="fill:#ff0000;fill-opacity:1;fill-rule:evenodd;stroke:#ff0000;stroke-width:0.30236199;stroke-linecap:butt;stroke-linejoin:miter;stroke-miterlimit:4;stroke-dasharray:none;stroke-opacity:1"
         d="m -95.551,-50.25 1.133,-1.133 -3.969,1.133 3.969,1.133 z" /></g><g
       id="g54"><path
         inkscape:connector-curvature="0"
         id="path56"
         style="fill:#ff0000;fill-opacity:1;fill-rule:evenodd;stroke:#ff0000;stroke-width:1.66596603;stroke-linecap:butt;stroke-linejoin:miter;stroke-miterlimit:4;stroke-dasharray:none;stroke-opacity:1"
         d="m 63.855,49.074 c 0.512,0.645 0.415,1.586 -0.218,2.106 -0.637,0.519 -1.571,0.422 -2.082,-0.219 -0.516,-0.641 -0.422,-1.582 0.215,-2.106 0.632,-0.519 1.562,-0.425 2.082,0.215" /></g><g
       id="g58"><path
         inkscape:connector-curvature="0"
         id="path60"
         style="fill:none;stroke:#000000;stroke-width:0.56692898;stroke-linecap:butt;stroke-linejoin:miter;stroke-miterlimit:4;stroke-dasharray:1.700787, 1.700787;stroke-dashoffset:0;stroke-opacity:1"
         d="m 65.758,57.75 h 28.687 l 5.063,-7.5" /></g><g
       id="g62"><path
         inkscape:connector-curvature="0"
         id="path64"
         style="fill:#0d05ff;fill-opacity:1;fill-rule:evenodd;stroke:#0000ff;stroke-width:1.66596603;stroke-linecap:butt;stroke-linejoin:miter;stroke-miterlimit:4;stroke-dasharray:none;stroke-opacity:1"
         d="m 63.855,56.762 c 0.512,0.644 0.415,1.586 -0.218,2.105 -0.637,0.52 -1.571,0.422 -2.082,-0.219 -0.516,-0.64 -0.422,-1.582 0.215,-2.105 0.632,-0.52 1.562,-0.426 2.082,0.215" /></g><g
       id="g66"><path
         inkscape:connector-curvature="0"
         id="path68"
         style="fill:#0d05ff;fill-opacity:1;fill-rule:evenodd;stroke:#0000ff;stroke-width:1.66596603;stroke-linecap:butt;stroke-linejoin:miter;stroke-miterlimit:4;stroke-dasharray:none;stroke-opacity:1"
         d="m 63.855,64.262 c 0.512,0.644 0.415,1.586 -0.218,2.105 -0.637,0.52 -1.571,0.422 -2.082,-0.219 -0.516,-0.64 -0.422,-1.582 0.215,-2.105 0.632,-0.52 1.562,-0.426 2.082,0.215" /></g><g
       id="g70"><path
         inkscape:connector-curvature="0"
         id="path72"
         style="fill:none;stroke:#000000;stroke-width:0.56692898;stroke-linecap:butt;stroke-linejoin:miter;stroke-miterlimit:4;stroke-dasharray:1.700787, 1.700787;stroke-dashoffset:0;stroke-opacity:1"
         d="m 65.758,65.25 h 28.687 l 5.063,-15" /></g><g
       id="g74"><path
         inkscape:connector-curvature="0"
         id="path76"
         style="fill:#ff0000;fill-opacity:1;fill-rule:evenodd;stroke:#ff0000;stroke-width:1.66596603;stroke-linecap:butt;stroke-linejoin:miter;stroke-miterlimit:4;stroke-dasharray:none;stroke-opacity:1"
         d="m 102.051,49.07 c 0.515,0.641 0.418,1.586 -0.219,2.106 -0.633,0.523 -1.562,0.422 -2.078,-0.219 -0.516,-0.645 -0.418,-1.586 0.215,-2.109 0.633,-0.52 1.562,-0.426 2.078,0.214" /></g><g
       id="g78"><path
         inkscape:connector-curvature="0"
         id="path80"
         style="fill:#ff0000;fill-opacity:1;fill-rule:evenodd;stroke:#ff0000;stroke-width:1.66596603;stroke-linecap:butt;stroke-linejoin:miter;stroke-miterlimit:4;stroke-dasharray:none;stroke-opacity:1"
         d="m 63.855,71.664 c 0.512,0.641 0.415,1.582 -0.218,2.102 -0.637,0.523 -1.571,0.422 -2.082,-0.219 -0.516,-0.641 -0.422,-1.582 0.215,-2.106 0.632,-0.519 1.562,-0.425 2.082,0.215" /></g><g
       id="g82"><path
         inkscape:connector-curvature="0"
         id="path84"
         style="fill:none;stroke:#ff0000;stroke-width:0.56692898;stroke-linecap:butt;stroke-linejoin:miter;stroke-miterlimit:4;stroke-dasharray:none;stroke-opacity:1"
         d="M 65.754,72.703 H 97.816" /></g><g
       transform="scale(-1)"
       id="g86"><path
         inkscape:connector-curvature="0"
         id="path88"
         style="fill:#ff0000;fill-opacity:1;fill-rule:evenodd;stroke:#ff0000;stroke-width:0.30236199;stroke-linecap:butt;stroke-linejoin:miter;stroke-miterlimit:4;stroke-dasharray:none;stroke-opacity:1"
         d="m -95.551,-72.703 1.137,-1.137 -3.969,1.137 3.969,1.133 z" /></g><g
       id="g90"><path
         inkscape:connector-curvature="0"
         id="path92"
         style="fill:#ff0000;fill-opacity:1;fill-rule:evenodd;stroke:#ff0000;stroke-width:1.66596603;stroke-linecap:butt;stroke-linejoin:miter;stroke-miterlimit:4;stroke-dasharray:none;stroke-opacity:1"
         d="m 102.051,71.48 c 0.515,0.645 0.418,1.586 -0.219,2.11 -0.633,0.519 -1.562,0.422 -2.078,-0.219 -0.516,-0.644 -0.418,-1.586 0.215,-2.109 0.633,-0.524 1.562,-0.426 2.078,0.215" /></g><text
       id="text102"
       style="font-variant:normal;font-weight:bold;font-size:6px;font-family:'DejaVu Sans';-inkscape-font-specification:DejaVuSans-Bold;writing-mode:lr-tb;fill:#000000;fill-opacity:1;fill-rule:nonzero;stroke:none"
       x="46.684563"
       y="4.5585928"><tspan
         id="tspan94"
         sodipodi:role="line"
         y="4.5585928"
         x="46.684563 51.082561 55.126564 59.392563 63.700562 65.752563 70.042564 74.104561 76.972565 81.040558">Candidate </tspan><tspan
         id="tspan96"
         sodipodi:role="line"
         y="12.058593"
         x="39.436516 42.988514 47.110516 51.376514 54.004513 58.126514 61.084515 67.330513 71.392517 74.260513 76.312515 80.434509 84.718513">conformations</tspan><tspan
         id="tspan98"
         sodipodi:role="line"
         y="4.5585928"
         x="94.204079 98.602081 102.86808 106.91208 109.88808 113.93208 117.48409 120.37008 124.43808 127.39608 129.44807 133.01808 135.88608 137.95609 141.50807">Characteristic </tspan><tspan
         id="tspan100"
         sodipodi:role="line"
         y="12.058593"
         x="93.436501 96.988503 101.1105 105.3765 108.0045 112.1265 115.0845 121.33051 125.3925 128.2605 130.3125 134.43449 138.71851">conformations</tspan></text>
<text
       id="text106"
       style="font-variant:normal;font-weight:normal;font-size:8.04984474px;font-family:'DejaVu Sans';-inkscape-font-specification:DejaVuSans;writing-mode:lr-tb;fill:#000000;fill-opacity:1;fill-rule:nonzero;stroke:none;stroke-width:0.67082042"
       transform="matrix(0,1.490712,-0.67082039,0,0,0)"
       x="51.81498"
       y="-123.27259"><tspan
         id="tspan104"
         sodipodi:role="line"
         y="-123.27259"
         x="51.81498 54.366779 56.918579 59.470383"
         style="stroke-width:0.67082042">....</tspan></text>
<text
       id="text110"
       style="font-variant:normal;font-weight:normal;font-size:8.50835609px;font-family:'DejaVu Sans';-inkscape-font-specification:DejaVuSans;writing-mode:lr-tb;fill:#000000;fill-opacity:1;fill-rule:nonzero;stroke:none;stroke-width:0.99999994"
       x="14.840589"
       y="292.65305"
       transform="scale(1.1406273,0.87671056)"><tspan
         id="tspan108"
         y="292.65305"
         x="14.840589"
         style="stroke-width:0.99999994">T</tspan></text>
<text
       id="text114"
       style="font-variant:normal;font-weight:normal;font-size:5.53042984px;font-family:'DejaVu Sans';-inkscape-font-specification:DejaVuSans;writing-mode:lr-tb;fill:#000000;fill-opacity:1;fill-rule:nonzero;stroke:none;stroke-width:0.99999994"
       x="20.041986"
       y="294.35471"
       transform="scale(1.1406273,0.87671056)"><tspan
         id="tspan112"
         y="294.35471"
         x="20.041986"
         style="stroke-width:0.99999994">n</tspan></text>
<text
       id="text118"
       style="font-variant:normal;font-weight:normal;font-size:8.50835609px;font-family:'DejaVu Sans';-inkscape-font-specification:DejaVuSans;writing-mode:lr-tb;fill:#000000;fill-opacity:1;fill-rule:nonzero;stroke:none;stroke-width:0.99999994"
       x="14.082076"
       y="275.00711"
       transform="scale(1.1406273,0.87671056)"><tspan
         id="tspan116"
         y="275.00711"
         x="14.082076"
         style="stroke-width:0.99999994">T</tspan></text>
<text
       id="text122"
       style="font-variant:normal;font-weight:normal;font-size:5.53042984px;font-family:'DejaVu Sans';-inkscape-font-specification:DejaVuSans;writing-mode:lr-tb;fill:#000000;fill-opacity:1;fill-rule:nonzero;stroke:none;stroke-width:0.99999994"
       x="19.283474"
       y="276.7088"
       transform="scale(1.1406273,0.87671056)"><tspan
         id="tspan120"
         sodipodi:role="line"
         y="276.7088"
         x="19.283474 22.784235 24.775188"
         style="stroke-width:0.99999994">n-1</tspan></text>
<g
       id="g124"><path
         inkscape:connector-curvature="0"
         id="path126"
         style="fill:#ff0000;fill-opacity:1;fill-rule:evenodd;stroke:#ff0000;stroke-width:1.66596603;stroke-linecap:butt;stroke-linejoin:miter;stroke-miterlimit:4;stroke-dasharray:none;stroke-opacity:1"
         d="m 63.855,97.164 c 0.512,0.641 0.415,1.582 -0.218,2.102 -0.637,0.523 -1.571,0.422 -2.082,-0.219 -0.516,-0.641 -0.422,-1.582 0.215,-2.106 0.632,-0.519 1.562,-0.425 2.082,0.215" /></g><g
       id="g128"><path
         inkscape:connector-curvature="0"
         id="path130"
         style="fill:none;stroke:#ff0000;stroke-width:0.56692898;stroke-linecap:butt;stroke-linejoin:miter;stroke-miterlimit:4;stroke-dasharray:none;stroke-opacity:1"
         d="M 65.754,98.203 H 97.816" /></g><g
       transform="scale(-1)"
       id="g132"><path
         inkscape:connector-curvature="0"
         id="path134"
         style="fill:#ff0000;fill-opacity:1;fill-rule:evenodd;stroke:#ff0000;stroke-width:0.30236199;stroke-linecap:butt;stroke-linejoin:miter;stroke-miterlimit:4;stroke-dasharray:none;stroke-opacity:1"
         d="m -95.551,-98.203 1.137,-1.137 -3.969,1.137 3.969,1.133 z" /></g><g
       id="g136"><path
         inkscape:connector-curvature="0"
         id="path138"
         style="fill:#ff0000;fill-opacity:1;fill-rule:evenodd;stroke:#ff0000;stroke-width:1.66596603;stroke-linecap:butt;stroke-linejoin:miter;stroke-miterlimit:4;stroke-dasharray:none;stroke-opacity:1"
         d="m 102.051,96.98 c 0.515,0.645 0.418,1.586 -0.219,2.11 -0.633,0.519 -1.562,0.422 -2.078,-0.219 -0.516,-0.644 -0.418,-1.586 0.215,-2.109 0.633,-0.524 1.562,-0.426 2.078,0.215" /></g><g
       id="g140"><path
         inkscape:connector-curvature="0"
         id="path142"
         style="fill:#0d05ff;fill-opacity:1;fill-rule:evenodd;stroke:#0000ff;stroke-width:1.66596603;stroke-linecap:butt;stroke-linejoin:miter;stroke-miterlimit:4;stroke-dasharray:none;stroke-opacity:1"
         d="m 63.855,105.508 c 0.512,0.64 0.415,1.582 -0.218,2.101 -0.637,0.524 -1.571,0.426 -2.082,-0.218 -0.516,-0.641 -0.422,-1.582 0.215,-2.106 0.632,-0.519 1.562,-0.422 2.082,0.219" /></g><g
       id="g144"><path
         inkscape:connector-curvature="0"
         id="path146"
         style="fill:none;stroke:#000000;stroke-width:0.56692898;stroke-linecap:butt;stroke-linejoin:miter;stroke-miterlimit:4;stroke-dasharray:1.700787, 1.700787;stroke-dashoffset:0;stroke-opacity:1"
         d="M 65.758,106.5 H 96.133 L 99.508,99" /></g><text
       id="text150"
       style="font-variant:normal;font-weight:normal;font-size:8.50835609px;font-family:'DejaVu Sans';-inkscape-font-specification:DejaVuSans;writing-mode:lr-tb;fill:#000000;fill-opacity:1;fill-rule:nonzero;stroke:none;stroke-width:0.99999994"
       x="15.245307"
       y="28.862215"
       transform="scale(1.1406273,0.87671055)"><tspan
         id="tspan148"
         y="28.862215"
         x="15.245307"
         style="stroke-width:0.99999994">T</tspan></text>
<text
       id="text154"
       style="font-variant:normal;font-weight:normal;font-size:5.53042984px;font-family:'DejaVu Sans';-inkscape-font-specification:DejaVuSans;writing-mode:lr-tb;fill:#000000;fill-opacity:1;fill-rule:nonzero;stroke:none;stroke-width:0.99999994"
       x="20.446703"
       y="30.56389"
       transform="scale(1.1406273,0.87671055)"><tspan
         id="tspan152"
         y="30.56389"
         x="20.446703"
         style="stroke-width:0.99999994">0</tspan></text>
<text
       id="text164"
       style="font-variant:normal;font-weight:bold;font-size:6px;font-family:'DejaVu Sans';-inkscape-font-specification:DejaVuSans-Bold;writing-mode:lr-tb;fill:#000000;fill-opacity:1;fill-rule:nonzero;stroke:none"
       x="-0.430664"
       y="4.5585928"><tspan
         id="tspan160"
         sodipodi:role="line"
         y="4.5585928"
         x="-0.430664 3.8893361 5.9413362 12.187336 16.471336 18.523336 22.567335 25.453337 27.505337 31.627335 35.893337">Simulation </tspan><tspan
         id="tspan162"
         sodipodi:role="line"
         y="12.058593"
         x="10.127932 12.995932 15.047932 21.293932">time</tspan></text>
<text
       id="text168"
       style="font-variant:normal;font-weight:normal;font-size:19.47353745px;font-family:'DejaVu Sans';-inkscape-font-specification:DejaVuSans;writing-mode:lr-tb;fill:#0000f7;fill-opacity:1;fill-rule:nonzero;stroke:none;stroke-width:0.90887499"
       transform="scale(0.76642982,1.3047509)"
       x="133.89847"
       y="33.539181"><tspan
         id="tspan166"
         y="33.539181"
         x="133.89847"
         style="fill:#0000f7;fill-opacity:1;stroke-width:0.90887499">}</tspan></text>
<text
       id="text174"
       style="font-variant:normal;font-weight:normal;font-size:7.59239531px;font-family:'DejaVu Sans';-inkscape-font-specification:DejaVuSans;writing-mode:lr-tb;fill:#000000;fill-opacity:1;fill-rule:nonzero;stroke:none;stroke-width:1"
       x="123.66582"
       y="32.49332"
       transform="scale(0.9898107,1.0102942)"><tspan
         id="tspan170"
         sodipodi:role="line"
         y="32.49332"
         x="123.66582 128.60086 133.2702 138.08379 142.88979 147.69577 152.50934 157.15588 161.98466 164.96086"
         style="stroke-width:1">Redundant </tspan><tspan
         id="tspan172"
         sodipodi:role="line"
         y="41.983814"
         x="123.66582 127.83405 132.47301 137.27899 139.95152 144.59048 147.58948 154.98448 159.63101 162.60722 164.71033 169.34927 174.15527"
         style="stroke-width:1">conformations</tspan></text>
<g
       transform="scale(-1)"
       id="g176"><path
         inkscape:connector-curvature="0"
         id="path178"
         style="fill:none;stroke:#ff0000;stroke-width:2.26771688;stroke-linecap:butt;stroke-linejoin:miter;stroke-miterlimit:4;stroke-dasharray:none;stroke-opacity:1"
         d="m -61.359,-20.875 c 0.394,0.473 0.32,1.168 -0.168,1.555 -0.485,0.382 -1.2,0.312 -1.594,-0.164 -0.395,-0.473 -0.32,-1.168 0.164,-1.555 0.484,-0.383 1.199,-0.313 1.598,0.16" /></g><g
       transform="scale(-1)"
       id="g180"><path
         inkscape:connector-curvature="0"
         id="path182"
         style="fill:none;stroke:#ff0000;stroke-width:2.26771688;stroke-linecap:butt;stroke-linejoin:miter;stroke-miterlimit:4;stroke-dasharray:none;stroke-opacity:1"
         d="m -100.621,-20.875 c 0.394,0.473 0.32,1.168 -0.168,1.555 -0.484,0.382 -1.199,0.312 -1.594,-0.164 -0.394,-0.473 -0.324,-1.168 0.164,-1.555 0.485,-0.383 1.199,-0.313 1.594,0.16" /></g><g
       id="g184"><path
         inkscape:connector-curvature="0"
         id="path186"
         style="fill:none;stroke:#ff0000;stroke-width:0.56692898;stroke-linecap:butt;stroke-linejoin:miter;stroke-miterlimit:4;stroke-dasharray:none;stroke-opacity:1"
         d="M 65.984,114.129 H 98.047" /></g><g
       transform="scale(-1)"
       id="g188"><path
         inkscape:connector-curvature="0"
         id="path190"
         style="fill:#ff0000;fill-opacity:1;fill-rule:evenodd;stroke:#ff0000;stroke-width:0.30236199;stroke-linecap:butt;stroke-linejoin:miter;stroke-miterlimit:4;stroke-dasharray:none;stroke-opacity:1"
         d="m -95.777,-114.129 1.132,-1.133 -3.968,1.133 3.968,1.133 z" /></g><g
       id="g192"><path
         inkscape:connector-curvature="0"
         id="path194"
         style="fill:#ff0000;fill-opacity:1;fill-rule:evenodd;stroke:#ff0000;stroke-width:1.66596603;stroke-linecap:butt;stroke-linejoin:miter;stroke-miterlimit:4;stroke-dasharray:none;stroke-opacity:1"
         d="m 64.078,112.953 c 0.516,0.645 0.418,1.586 -0.219,2.106 -0.632,0.519 -1.566,0.421 -2.082,-0.219 -0.511,-0.641 -0.418,-1.586 0.215,-2.106 0.637,-0.523 1.567,-0.425 2.086,0.215" /></g><g
       id="g196"><path
         inkscape:connector-curvature="0"
         id="path198"
         style="fill:none;stroke:#000000;stroke-width:0.56692898;stroke-linecap:butt;stroke-linejoin:miter;stroke-miterlimit:4;stroke-dasharray:1.700787, 1.700787;stroke-dashoffset:0;stroke-opacity:1"
         d="m 65.984,121.629 h 28.688 l 5.062,-7.5" /></g><g
       id="g200"><path
         inkscape:connector-curvature="0"
         id="path202"
         style="fill:#0d05ff;fill-opacity:1;fill-rule:evenodd;stroke:#0000ff;stroke-width:1.66596603;stroke-linecap:butt;stroke-linejoin:miter;stroke-miterlimit:4;stroke-dasharray:none;stroke-opacity:1"
         d="m 64.078,120.641 c 0.516,0.644 0.418,1.586 -0.219,2.105 -0.632,0.52 -1.566,0.422 -2.082,-0.219 -0.511,-0.64 -0.418,-1.586 0.215,-2.105 0.637,-0.524 1.567,-0.426 2.086,0.215" /></g><g
       id="g204"><path
         inkscape:connector-curvature="0"
         id="path206"
         style="fill:#0d05ff;fill-opacity:1;fill-rule:evenodd;stroke:#0000ff;stroke-width:1.66596603;stroke-linecap:butt;stroke-linejoin:miter;stroke-miterlimit:4;stroke-dasharray:none;stroke-opacity:1"
         d="m 64.078,128.141 c 0.516,0.644 0.418,1.586 -0.219,2.105 -0.632,0.52 -1.566,0.422 -2.082,-0.219 -0.511,-0.64 -0.418,-1.586 0.215,-2.105 0.637,-0.524 1.567,-0.426 2.086,0.215" /></g><g
       id="g208"><path
         inkscape:connector-curvature="0"
         id="path210"
         style="fill:none;stroke:#000000;stroke-width:0.56692898;stroke-linecap:butt;stroke-linejoin:miter;stroke-miterlimit:4;stroke-dasharray:1.700787, 1.700787;stroke-dashoffset:0;stroke-opacity:1"
         d="m 65.984,129.129 h 28.688 l 5.062,-15" /></g><g
       id="g212"><path
         inkscape:connector-curvature="0"
         id="path214"
         style="fill:#ff0000;fill-opacity:1;fill-rule:evenodd;stroke:#ff0000;stroke-width:1.66596603;stroke-linecap:butt;stroke-linejoin:miter;stroke-miterlimit:4;stroke-dasharray:none;stroke-opacity:1"
         d="m 102.277,112.945 c 0.516,0.645 0.418,1.59 -0.218,2.11 -0.633,0.519 -1.563,0.422 -2.079,-0.219 -0.515,-0.645 -0.418,-1.586 0.215,-2.109 0.633,-0.524 1.563,-0.426 2.078,0.214" /></g><g
       id="g216"><path
         inkscape:connector-curvature="0"
         id="path218"
         style="fill:none;stroke:#ff0000;stroke-width:0.56692898;stroke-linecap:butt;stroke-linejoin:miter;stroke-miterlimit:4;stroke-dasharray:none;stroke-opacity:1"
         d="M 66.215,136.004 H 98.277" /></g><g
       transform="scale(-1)"
       id="g220"><path
         inkscape:connector-curvature="0"
         id="path222"
         style="fill:#ff0000;fill-opacity:1;fill-rule:evenodd;stroke:#ff0000;stroke-width:0.30236199;stroke-linecap:butt;stroke-linejoin:miter;stroke-miterlimit:4;stroke-dasharray:none;stroke-opacity:1"
         d="m -96.012,-136.004 1.137,-1.137 -3.969,1.137 3.969,1.133 z" /></g><g
       id="g224"><path
         inkscape:connector-curvature="0"
         id="path226"
         style="fill:none;stroke:#000000;stroke-width:0.56692898;stroke-linecap:butt;stroke-linejoin:miter;stroke-miterlimit:4;stroke-dasharray:1.700787, 1.700787;stroke-dashoffset:0;stroke-opacity:1"
         d="m 66.215,143.504 h 28.687 l 5.063,-7.5" /></g><g
       id="g228"><path
         inkscape:connector-curvature="0"
         id="path230"
         style="fill:none;stroke:#000000;stroke-width:0.56692898;stroke-linecap:butt;stroke-linejoin:miter;stroke-miterlimit:4;stroke-dasharray:1.700787, 1.700787;stroke-dashoffset:0;stroke-opacity:1"
         d="M 66.215,151.004 H 96.59 l 3.375,-15" /></g><g
       id="g232"><path
         inkscape:connector-curvature="0"
         id="path234"
         style="fill:none;stroke:#000000;stroke-width:0.56692898;stroke-linecap:butt;stroke-linejoin:miter;stroke-miterlimit:4;stroke-dasharray:1.700787, 1.700787;stroke-dashoffset:0;stroke-opacity:1"
         d="m 66.215,158.504 h 32.062 l 1.688,-22.5" /></g><g
       id="g236"><path
         inkscape:connector-curvature="0"
         id="path238"
         style="fill:#0d05ff;fill-opacity:1;fill-rule:evenodd;stroke:#0000ff;stroke-width:1.66596603;stroke-linecap:butt;stroke-linejoin:miter;stroke-miterlimit:4;stroke-dasharray:none;stroke-opacity:1"
         d="m 64.312,142.332 c 0.516,0.641 0.415,1.582 -0.218,2.106 -0.637,0.519 -1.567,0.421 -2.082,-0.219 -0.516,-0.645 -0.418,-1.586 0.215,-2.106 0.632,-0.523 1.566,-0.425 2.082,0.215" /></g><g
       id="g240"><path
         inkscape:connector-curvature="0"
         id="path242"
         style="fill:#0d05ff;fill-opacity:1;fill-rule:evenodd;stroke:#0000ff;stroke-width:1.66596603;stroke-linecap:butt;stroke-linejoin:miter;stroke-miterlimit:4;stroke-dasharray:none;stroke-opacity:1"
         d="m 64.312,150.207 c 0.516,0.641 0.415,1.582 -0.218,2.105 -0.637,0.52 -1.567,0.422 -2.082,-0.218 -0.516,-0.645 -0.418,-1.586 0.215,-2.106 0.632,-0.523 1.566,-0.426 2.082,0.215" /></g><g
       id="g244"><path
         inkscape:connector-curvature="0"
         id="path246"
         style="fill:#0d05ff;fill-opacity:1;fill-rule:evenodd;stroke:#0000ff;stroke-width:1.66596603;stroke-linecap:butt;stroke-linejoin:miter;stroke-miterlimit:4;stroke-dasharray:none;stroke-opacity:1"
         d="m 64.312,157.52 c 0.516,0.64 0.415,1.582 -0.218,2.105 -0.637,0.52 -1.567,0.422 -2.082,-0.219 -0.516,-0.644 -0.418,-1.586 0.215,-2.105 0.632,-0.524 1.566,-0.426 2.082,0.215" /></g><g
       transform="scale(-1)"
       id="g248"><path
         inkscape:connector-curvature="0"
         id="path250"
         style="fill:none;stroke:#ff0000;stroke-width:2.26771688;stroke-linecap:butt;stroke-linejoin:miter;stroke-miterlimit:4;stroke-dasharray:none;stroke-opacity:1"
         d="m -61.816,-136.633 c 0.394,0.477 0.32,1.172 -0.168,1.555 -0.489,0.387 -1.2,0.312 -1.598,-0.16 -0.395,-0.473 -0.32,-1.172 0.168,-1.555 0.484,-0.387 1.199,-0.316 1.594,0.16" /></g><g
       transform="scale(-1)"
       id="g252"><path
         inkscape:connector-curvature="0"
         id="path254"
         style="fill:none;stroke:#ff0000;stroke-width:2.26771688;stroke-linecap:butt;stroke-linejoin:miter;stroke-miterlimit:4;stroke-dasharray:none;stroke-opacity:1"
         d="m -101.078,-136.633 c 0.394,0.477 0.316,1.172 -0.168,1.555 -0.488,0.387 -1.203,0.312 -1.598,-0.16 -0.394,-0.473 -0.32,-1.172 0.168,-1.555 0.485,-0.387 1.199,-0.316 1.594,0.16" /></g><g
       id="g256"><path
         inkscape:connector-curvature="0"
         id="path258"
         style="fill:none;stroke:#ff0000;stroke-width:0.56692898;stroke-linecap:butt;stroke-linejoin:miter;stroke-miterlimit:4;stroke-dasharray:none;stroke-opacity:1"
         d="M 66.32,166.523 H 98.383" /></g><g
       transform="scale(-1)"
       id="g260"><path
         inkscape:connector-curvature="0"
         id="path262"
         style="fill:#ff0000;fill-opacity:1;fill-rule:evenodd;stroke:#ff0000;stroke-width:0.30236199;stroke-linecap:butt;stroke-linejoin:miter;stroke-miterlimit:4;stroke-dasharray:none;stroke-opacity:1"
         d="m -96.113,-166.523 1.133,-1.133 -3.969,1.133 3.969,1.132 z" /></g><g
       id="g264"><path
         inkscape:connector-curvature="0"
         id="path266"
         style="fill:#ff0000;fill-opacity:1;fill-rule:evenodd;stroke:#ff0000;stroke-width:1.66596603;stroke-linecap:butt;stroke-linejoin:miter;stroke-miterlimit:4;stroke-dasharray:none;stroke-opacity:1"
         d="m 64.418,165.348 c 0.512,0.644 0.414,1.586 -0.219,2.105 -0.637,0.52 -1.57,0.422 -2.082,-0.219 -0.515,-0.64 -0.422,-1.582 0.215,-2.105 0.633,-0.52 1.563,-0.426 2.082,0.215" /></g><g
       id="g268"><path
         inkscape:connector-curvature="0"
         id="path270"
         style="fill:none;stroke:#000000;stroke-width:0.56692898;stroke-linecap:butt;stroke-linejoin:miter;stroke-miterlimit:4;stroke-dasharray:1.700787, 1.700787;stroke-dashoffset:0;stroke-opacity:1"
         d="m 66.32,174.023 h 28.688 l 5.062,-7.5" /></g><g
       id="g272"><path
         inkscape:connector-curvature="0"
         id="path274"
         style="fill:#0d05ff;fill-opacity:1;fill-rule:evenodd;stroke:#0000ff;stroke-width:1.66596603;stroke-linecap:butt;stroke-linejoin:miter;stroke-miterlimit:4;stroke-dasharray:none;stroke-opacity:1"
         d="m 64.418,173.035 c 0.512,0.645 0.414,1.586 -0.219,2.106 -0.637,0.519 -1.57,0.421 -2.082,-0.219 -0.515,-0.641 -0.422,-1.582 0.215,-2.106 0.633,-0.519 1.563,-0.425 2.082,0.215" /></g><g
       id="g276"><path
         inkscape:connector-curvature="0"
         id="path278"
         style="fill:#0d05ff;fill-opacity:1;fill-rule:evenodd;stroke:#0000ff;stroke-width:1.66596603;stroke-linecap:butt;stroke-linejoin:miter;stroke-miterlimit:4;stroke-dasharray:none;stroke-opacity:1"
         d="m 64.418,180.535 c 0.512,0.645 0.414,1.586 -0.219,2.106 -0.637,0.519 -1.57,0.421 -2.082,-0.219 -0.515,-0.641 -0.422,-1.582 0.215,-2.106 0.633,-0.519 1.563,-0.425 2.082,0.215" /></g><g
       id="g280"><path
         inkscape:connector-curvature="0"
         id="path282"
         style="fill:none;stroke:#000000;stroke-width:0.56692898;stroke-linecap:butt;stroke-linejoin:miter;stroke-miterlimit:4;stroke-dasharray:1.700787, 1.700787;stroke-dashoffset:0;stroke-opacity:1"
         d="m 66.32,181.523 h 28.688 l 5.062,-15" /></g><g
       id="g284"><path
         inkscape:connector-curvature="0"
         id="path286"
         style="fill:#ff0000;fill-opacity:1;fill-rule:evenodd;stroke:#ff0000;stroke-width:1.66596603;stroke-linecap:butt;stroke-linejoin:miter;stroke-miterlimit:4;stroke-dasharray:none;stroke-opacity:1"
         d="m 102.613,165.344 c 0.516,0.64 0.418,1.586 -0.218,2.105 -0.633,0.524 -1.563,0.422 -2.079,-0.219 -0.515,-0.644 -0.418,-1.585 0.215,-2.109 0.633,-0.519 1.563,-0.426 2.078,0.215" /></g><g
       id="g288"><path
         inkscape:connector-curvature="0"
         id="path290"
         style="fill:#ff0000;fill-opacity:1;fill-rule:evenodd;stroke:#ff0000;stroke-width:1.66596603;stroke-linecap:butt;stroke-linejoin:miter;stroke-miterlimit:4;stroke-dasharray:none;stroke-opacity:1"
         d="m 64.418,187.938 c 0.512,0.64 0.414,1.582 -0.219,2.101 -0.637,0.523 -1.57,0.422 -2.082,-0.219 -0.515,-0.64 -0.422,-1.582 0.215,-2.105 0.633,-0.52 1.563,-0.426 2.082,0.215" /></g><g
       id="g292"><path
         inkscape:connector-curvature="0"
         id="path294"
         style="fill:none;stroke:#ff0000;stroke-width:0.56692898;stroke-linecap:butt;stroke-linejoin:miter;stroke-miterlimit:4;stroke-dasharray:none;stroke-opacity:1"
         d="M 66.316,188.977 H 98.379" /></g><g
       transform="scale(-1)"
       id="g296"><path
         inkscape:connector-curvature="0"
         id="path298"
         style="fill:#ff0000;fill-opacity:1;fill-rule:evenodd;stroke:#ff0000;stroke-width:0.30236199;stroke-linecap:butt;stroke-linejoin:miter;stroke-miterlimit:4;stroke-dasharray:none;stroke-opacity:1"
         d="m -96.113,-188.977 1.136,-1.136 -3.968,1.136 3.968,1.133 z" /></g><g
       id="g300"><path
         inkscape:connector-curvature="0"
         id="path302"
         style="fill:#ff0000;fill-opacity:1;fill-rule:evenodd;stroke:#ff0000;stroke-width:1.66596603;stroke-linecap:butt;stroke-linejoin:miter;stroke-miterlimit:4;stroke-dasharray:none;stroke-opacity:1"
         d="m 102.613,187.754 c 0.516,0.644 0.418,1.586 -0.218,2.109 -0.633,0.52 -1.563,0.422 -2.079,-0.218 -0.515,-0.645 -0.418,-1.586 0.215,-2.11 0.633,-0.523 1.563,-0.426 2.078,0.215" /></g><text
       id="text306"
       style="font-variant:normal;font-weight:normal;font-size:8.04984474px;font-family:'DejaVu Sans';-inkscape-font-specification:DejaVuSans;writing-mode:lr-tb;fill:#000000;fill-opacity:1;fill-rule:nonzero;stroke:none;stroke-width:0.67082042"
       transform="matrix(0,1.490712,-0.67082039,0,0,0)"
       x="129.81374"
       y="-124.11114"><tspan
         id="tspan304"
         sodipodi:role="line"
         y="-124.11114"
         x="129.81374 132.36554 134.91734 137.46913"
         style="stroke-width:0.67082042">....</tspan></text>
<g
       id="g308"><path
         inkscape:connector-curvature="0"
         id="path310"
         style="fill:#ff0000;fill-opacity:1;fill-rule:evenodd;stroke:#ff0000;stroke-width:1.66596603;stroke-linecap:butt;stroke-linejoin:miter;stroke-miterlimit:4;stroke-dasharray:none;stroke-opacity:1"
         d="m 64.418,213.438 c 0.512,0.64 0.414,1.582 -0.219,2.101 -0.637,0.523 -1.57,0.422 -2.082,-0.219 -0.515,-0.64 -0.422,-1.582 0.215,-2.105 0.633,-0.52 1.563,-0.426 2.082,0.215" /></g><g
       id="g312"><path
         inkscape:connector-curvature="0"
         id="path314"
         style="fill:none;stroke:#ff0000;stroke-width:0.56692898;stroke-linecap:butt;stroke-linejoin:miter;stroke-miterlimit:4;stroke-dasharray:none;stroke-opacity:1"
         d="M 66.316,214.477 H 98.379" /></g><g
       transform="scale(-1)"
       id="g316"><path
         inkscape:connector-curvature="0"
         id="path318"
         style="fill:#ff0000;fill-opacity:1;fill-rule:evenodd;stroke:#ff0000;stroke-width:0.30236199;stroke-linecap:butt;stroke-linejoin:miter;stroke-miterlimit:4;stroke-dasharray:none;stroke-opacity:1"
         d="m -96.113,-214.477 1.136,-1.136 -3.968,1.136 3.968,1.133 z" /></g><g
       id="g320"><path
         inkscape:connector-curvature="0"
         id="path322"
         style="fill:#ff0000;fill-opacity:1;fill-rule:evenodd;stroke:#ff0000;stroke-width:1.66596603;stroke-linecap:butt;stroke-linejoin:miter;stroke-miterlimit:4;stroke-dasharray:none;stroke-opacity:1"
         d="m 102.613,213.254 c 0.516,0.644 0.418,1.586 -0.218,2.109 -0.633,0.52 -1.563,0.422 -2.079,-0.218 -0.515,-0.645 -0.418,-1.586 0.215,-2.11 0.633,-0.523 1.563,-0.426 2.078,0.215" /></g><g
       id="g324"><path
         inkscape:connector-curvature="0"
         id="path326"
         style="fill:#0d05ff;fill-opacity:1;fill-rule:evenodd;stroke:#0000ff;stroke-width:1.66596603;stroke-linecap:butt;stroke-linejoin:miter;stroke-miterlimit:4;stroke-dasharray:none;stroke-opacity:1"
         d="m 64.418,221.781 c 0.512,0.641 0.414,1.582 -0.219,2.102 -0.637,0.523 -1.57,0.426 -2.082,-0.219 -0.515,-0.641 -0.422,-1.582 0.215,-2.105 0.633,-0.52 1.563,-0.422 2.082,0.218" /></g><g
       id="g328"><path
         inkscape:connector-curvature="0"
         id="path330"
         style="fill:none;stroke:#000000;stroke-width:0.56692898;stroke-linecap:butt;stroke-linejoin:miter;stroke-miterlimit:4;stroke-dasharray:1.700787, 1.700787;stroke-dashoffset:0;stroke-opacity:1"
         d="m 66.32,222.773 h 30.375 l 3.375,-7.5" /></g><g
       transform="matrix(1,-9.07568e-4,0.00171429,0.999999,0,0)"
       id="g332"><path
         inkscape:connector-curvature="0"
         id="path334"
         style="fill:none;stroke:#000000;stroke-width:1.66677105;stroke-linecap:butt;stroke-linejoin:miter;stroke-miterlimit:4;stroke-dasharray:3.333543, 3.333543;stroke-dashoffset:0;stroke-opacity:1"
         d="m 113.71,27.951 c 5.37,14.493 4.349,35.75 -2.289,47.486 -6.633,11.74 -16.371,9.528 -21.757,-4.945 -5.385,-14.474 -4.38,-35.731 2.246,-47.498 6.625,-11.764 16.364,-9.591 21.761,4.859" /></g><g
       transform="matrix(0.999999,-0.00146726,0.00106037,1,0,0)"
       id="g336"><path
         inkscape:connector-curvature="0"
         id="path338"
         style="fill:none;stroke:#000000;stroke-width:1.66677105;stroke-linecap:butt;stroke-linejoin:miter;stroke-miterlimit:4;stroke-dasharray:3.333542, 3.333542;stroke-dashoffset:0;stroke-opacity:1"
         d="m 113.678,108.561 c 5.374,23.434 4.349,57.792 -2.285,76.774 -6.637,18.979 -16.375,15.398 -21.757,-8 -5.385,-23.395 -4.38,-57.765 2.246,-76.786 6.625,-19.026 16.364,-15.507 21.761,7.852" /></g><g
       id="g340"><path
         inkscape:connector-curvature="0"
         id="path342"
         style="fill:none;stroke:#ff0000;stroke-width:0.56692898;stroke-linecap:butt;stroke-linejoin:miter;stroke-miterlimit:4;stroke-dasharray:none;stroke-opacity:1"
         d="M 67.07,230.25 H 99.133" /></g><g
       transform="scale(-1)"
       id="g344"><path
         inkscape:connector-curvature="0"
         id="path346"
         style="fill:#ff0000;fill-opacity:1;fill-rule:evenodd;stroke:#ff0000;stroke-width:0.30236199;stroke-linecap:butt;stroke-linejoin:miter;stroke-miterlimit:4;stroke-dasharray:none;stroke-opacity:1"
         d="m -96.863,-230.25 1.133,-1.133 -3.969,1.133 3.969,1.133 z" /></g><g
       id="g348"><path
         inkscape:connector-curvature="0"
         id="path350"
         style="fill:none;stroke:#000000;stroke-width:0.56692898;stroke-linecap:butt;stroke-linejoin:miter;stroke-miterlimit:4;stroke-dasharray:1.700787, 1.700787;stroke-dashoffset:0;stroke-opacity:1"
         d="m 67.07,237.75 h 28.688 l 5.062,-7.5" /></g><g
       id="g352"><path
         inkscape:connector-curvature="0"
         id="path354"
         style="fill:none;stroke:#000000;stroke-width:0.56692898;stroke-linecap:butt;stroke-linejoin:miter;stroke-miterlimit:4;stroke-dasharray:1.700787, 1.700787;stroke-dashoffset:0;stroke-opacity:1"
         d="m 67.07,245.25 h 30.375 l 3.375,-15" /></g><g
       id="g356"><path
         inkscape:connector-curvature="0"
         id="path358"
         style="fill:none;stroke:#000000;stroke-width:0.56692898;stroke-linecap:butt;stroke-linejoin:miter;stroke-miterlimit:4;stroke-dasharray:1.700787, 1.700787;stroke-dashoffset:0;stroke-opacity:1"
         d="m 67.07,252.75 h 32.063 l 1.687,-22.5" /></g><g
       id="g360"><path
         inkscape:connector-curvature="0"
         id="path362"
         style="fill:#0d05ff;fill-opacity:1;fill-rule:evenodd;stroke:#0000ff;stroke-width:1.66596603;stroke-linecap:butt;stroke-linejoin:miter;stroke-miterlimit:4;stroke-dasharray:none;stroke-opacity:1"
         d="m 65.168,236.574 c 0.512,0.645 0.414,1.586 -0.219,2.106 -0.637,0.519 -1.57,0.422 -2.082,-0.219 -0.515,-0.641 -0.422,-1.582 0.215,-2.106 0.633,-0.519 1.563,-0.425 2.082,0.215" /></g><g
       id="g364"><path
         inkscape:connector-curvature="0"
         id="path366"
         style="fill:#0d05ff;fill-opacity:1;fill-rule:evenodd;stroke:#0000ff;stroke-width:1.66596603;stroke-linecap:butt;stroke-linejoin:miter;stroke-miterlimit:4;stroke-dasharray:none;stroke-opacity:1"
         d="m 65.168,244.449 c 0.512,0.645 0.414,1.586 -0.219,2.106 -0.637,0.519 -1.57,0.422 -2.082,-0.219 -0.515,-0.641 -0.422,-1.582 0.215,-2.106 0.633,-0.519 1.563,-0.425 2.082,0.215" /></g><g
       id="g368"><path
         inkscape:connector-curvature="0"
         id="path370"
         style="fill:#0d05ff;fill-opacity:1;fill-rule:evenodd;stroke:#0000ff;stroke-width:1.66596603;stroke-linecap:butt;stroke-linejoin:miter;stroke-miterlimit:4;stroke-dasharray:none;stroke-opacity:1"
         d="m 65.168,251.762 c 0.512,0.644 0.414,1.586 -0.219,2.105 -0.637,0.52 -1.57,0.422 -2.082,-0.219 -0.515,-0.64 -0.422,-1.582 0.215,-2.105 0.633,-0.52 1.563,-0.426 2.082,0.215" /></g><g
       transform="scale(-1)"
       id="g372"><path
         inkscape:connector-curvature="0"
         id="path374"
         style="fill:none;stroke:#ff0000;stroke-width:2.26771688;stroke-linecap:butt;stroke-linejoin:miter;stroke-miterlimit:4;stroke-dasharray:none;stroke-opacity:1"
         d="m -62.672,-230.875 c 0.395,0.473 0.32,1.168 -0.168,1.555 -0.484,0.382 -1.199,0.312 -1.594,-0.164 -0.394,-0.473 -0.32,-1.168 0.164,-1.555 0.485,-0.383 1.2,-0.313 1.598,0.16" /></g><g
       transform="scale(-1)"
       id="g376"><path
         inkscape:connector-curvature="0"
         id="path378"
         style="fill:none;stroke:#ff0000;stroke-width:2.26771688;stroke-linecap:butt;stroke-linejoin:miter;stroke-miterlimit:4;stroke-dasharray:none;stroke-opacity:1"
         d="m -101.934,-230.875 c 0.395,0.473 0.321,1.168 -0.168,1.555 -0.484,0.382 -1.199,0.312 -1.593,-0.164 -0.395,-0.473 -0.325,-1.168 0.164,-1.555 0.484,-0.383 1.199,-0.313 1.593,0.16" /></g><g
       id="g380"><path
         inkscape:connector-curvature="0"
         id="path382"
         style="fill:#ff0000;fill-opacity:1;fill-rule:evenodd;stroke:#ff0000;stroke-width:1.66596603;stroke-linecap:butt;stroke-linejoin:miter;stroke-miterlimit:4;stroke-dasharray:none;stroke-opacity:1"
         d="m 65.594,258.438 c 0.515,0.64 0.418,1.582 -0.219,2.101 -0.633,0.523 -1.566,0.422 -2.082,-0.219 -0.516,-0.64 -0.418,-1.582 0.215,-2.105 0.637,-0.52 1.566,-0.426 2.082,0.215" /></g><g
       id="g384"><path
         inkscape:connector-curvature="0"
         id="path386"
         style="fill:none;stroke:#ff0000;stroke-width:0.56692898;stroke-linecap:butt;stroke-linejoin:miter;stroke-miterlimit:4;stroke-dasharray:none;stroke-opacity:1"
         d="M 67.496,259.477 H 99.559" /></g><g
       transform="scale(-1)"
       id="g388"><path
         inkscape:connector-curvature="0"
         id="path390"
         style="fill:#ff0000;fill-opacity:1;fill-rule:evenodd;stroke:#ff0000;stroke-width:0.30236199;stroke-linecap:butt;stroke-linejoin:miter;stroke-miterlimit:4;stroke-dasharray:none;stroke-opacity:1"
         d="m -97.293,-259.477 1.137,-1.136 -3.969,1.136 3.969,1.133 z" /></g><g
       id="g392"><path
         inkscape:connector-curvature="0"
         id="path394"
         style="fill:#ff0000;fill-opacity:1;fill-rule:evenodd;stroke:#ff0000;stroke-width:1.66596603;stroke-linecap:butt;stroke-linejoin:miter;stroke-miterlimit:4;stroke-dasharray:none;stroke-opacity:1"
         d="m 103.793,258.254 c 0.516,0.644 0.414,1.586 -0.219,2.109 -0.633,0.52 -1.562,0.422 -2.078,-0.218 -0.516,-0.645 -0.418,-1.586 0.215,-2.11 0.633,-0.523 1.562,-0.426 2.078,0.215" /></g><g
       transform="matrix(1,-7.84307e-4,0.00198371,0.999998,0,0)"
       id="g396"><path
         inkscape:connector-curvature="0"
         id="path398"
         style="fill:none;stroke:#000000;stroke-width:1.66677105;stroke-linecap:butt;stroke-linejoin:miter;stroke-miterlimit:4;stroke-dasharray:3.333544, 3.333544;stroke-dashoffset:0;stroke-opacity:1"
         d="m 113.361,217.675 c 5.374,12.524 4.349,30.89 -2.284,41.038 -6.638,10.143 -16.376,8.229 -21.758,-4.275 -5.385,-12.508 -4.38,-30.879 2.246,-41.046 6.626,-10.17 16.364,-8.291 21.761,4.197" /></g><path
       style="opacity:1;vector-effect:none;fill:none;fill-opacity:1;stroke:#080000;stroke-width:0.56700003;stroke-linecap:butt;stroke-linejoin:miter;stroke-miterlimit:4;stroke-dasharray:0.56700004, 0.56700004;stroke-dashoffset:0;stroke-opacity:1;marker-end:url(#Arrow1Lend)"
       d="M 21.222934,36.640378 V 220.57449 l 0.563512,5.39396"
       id="path1747"
       inkscape:connector-curvature="0"
       sodipodi:nodetypes="ccc" /><text
       xml:space="preserve"
       style="font-style:normal;font-weight:normal;font-size:16px;line-height:1.25;font-family:sans-serif;letter-spacing:0px;word-spacing:0px;fill:#000000;fill-opacity:1;stroke:none;stroke-width:0.75"
       x="43.398552"
       y="24.238329"
       id="text2528"><tspan
         sodipodi:role="line"
         id="tspan2526"
         x="43.398552"
         y="24.238329"
         style="stroke-width:0.75">a</tspan></text>
<text
       xml:space="preserve"
       style="font-style:normal;font-weight:normal;font-size:15.99999905px;line-height:1.25;font-family:sans-serif;letter-spacing:0px;word-spacing:0px;fill:#000000;fill-opacity:1;stroke:none;stroke-width:0.75"
       x="42.960129"
       y="55.384735"
       id="text2528-0"
       inkscape:transform-center-y="1.3282114"><tspan
         sodipodi:role="line"
         id="tspan2526-7"
         x="42.960129"
         y="55.384735"
         style="stroke-width:0.75">b</tspan></text>
<text
       xml:space="preserve"
       style="font-style:normal;font-weight:normal;font-size:15.99999905px;line-height:1.25;font-family:sans-serif;letter-spacing:0px;word-spacing:0px;fill:#000000;fill-opacity:1;stroke:none;stroke-width:0.75"
       x="42.249191"
       y="77.49173"
       id="text2528-0-5"
       inkscape:transform-center-y="1.3282114"><tspan
         sodipodi:role="line"
         id="tspan2526-7-8"
         x="42.249191"
         y="77.49173"
         style="stroke-width:0.75">c</tspan></text>
</g></svg>