<?xml version="1.0" encoding="UTF-8" standalone="no"?>
<!-- Created with Inkscape (http://www.inkscape.org/) -->

<svg
   xmlns:dc="http://purl.org/dc/elements/1.1/"
   xmlns:cc="http://creativecommons.org/ns#"
   xmlns:rdf="http://www.w3.org/1999/02/22-rdf-syntax-ns#"
   xmlns:svg="http://www.w3.org/2000/svg"
   xmlns="http://www.w3.org/2000/svg"
   xmlns:sodipodi="http://sodipodi.sourceforge.net/DTD/sodipodi-0.dtd"
   xmlns:inkscape="http://www.inkscape.org/namespaces/inkscape"
   version="1.1"
   id="svg2"
   xml:space="preserve"
   width="1440"
   height="672"
   viewBox="0 0 1440 672"
   sodipodi:docname="2RN2-weakness-clustering.svg"
   inkscape:version="0.92.3 (2405546, 2018-03-11)"><metadata
     id="metadata8"><rdf:RDF><cc:Work
         rdf:about=""><dc:format>image/svg+xml</dc:format><dc:type
           rdf:resource="http://purl.org/dc/dcmitype/StillImage" /><dc:title /></cc:Work></rdf:RDF></metadata><defs
     id="defs6"><clipPath
       clipPathUnits="userSpaceOnUse"
       id="clipPath20"><path
         d="m 59.04,73.44 h 990.72 V 444.96 H 59.04 Z"
         id="path18"
         inkscape:connector-curvature="0" /></clipPath></defs><sodipodi:namedview
     pagecolor="#ffffff"
     bordercolor="#666666"
     borderopacity="1"
     objecttolerance="10"
     gridtolerance="10"
     guidetolerance="10"
     inkscape:pageopacity="0"
     inkscape:pageshadow="2"
     inkscape:window-width="1366"
     inkscape:window-height="732"
     id="namedview4"
     showgrid="false"
     inkscape:zoom="0.49722222"
     inkscape:cx="466.27517"
     inkscape:cy="436.0752"
     inkscape:window-x="-2"
     inkscape:window-y="-2"
     inkscape:window-maximized="1"
     inkscape:current-layer="g10" /><g
     id="g10"
     inkscape:groupmode="layer"
     inkscape:label="2RN2"
     transform="matrix(1.3333333,0,0,-1.3333333,0,672)"><flowRoot
       xml:space="preserve"
       id="flowRoot108-6"
       style="font-style:normal;font-variant:normal;font-weight:bold;font-stretch:normal;font-size:53.33333206px;line-height:1.25;font-family:sans-serif;-inkscape-font-specification:'sans-serif Bold';letter-spacing:0px;word-spacing:0px;fill:#000000;fill-opacity:1;stroke:none"
       transform="matrix(0.75000002,0,0,-0.75000002,114.43303,567.0851)"><flowRegion
         id="flowRegion110-7"
         style="font-style:normal;font-variant:normal;font-weight:bold;font-stretch:normal;font-size:53.33333206px;font-family:sans-serif;-inkscape-font-specification:'sans-serif Bold';fill:#000000"><rect
           id="rect112-5"
           width="217.13446"
           height="64.604912"
           x="181.31049"
           y="191.3833"
           style="font-style:normal;font-variant:normal;font-weight:bold;font-stretch:normal;font-size:53.33333206px;font-family:sans-serif;-inkscape-font-specification:'sans-serif Bold';fill:#000000" /></flowRegion><flowPara
         id="flowPara114-3">R1</flowPara></flowRoot><flowRoot
       xml:space="preserve"
       id="flowRoot108-6-61"
       style="font-style:normal;font-variant:normal;font-weight:bold;font-stretch:normal;font-size:53.33333206px;line-height:1.25;font-family:sans-serif;-inkscape-font-specification:'sans-serif Bold';letter-spacing:0px;word-spacing:0px;fill:#000000;fill-opacity:1;stroke:none"
       transform="matrix(0.75000002,0,0,-0.75000002,446.00945,566.81305)"><flowRegion
         id="flowRegion110-7-8"
         style="font-style:normal;font-variant:normal;font-weight:bold;font-stretch:normal;font-size:53.33333206px;font-family:sans-serif;-inkscape-font-specification:'sans-serif Bold';fill:#000000"><rect
           id="rect112-5-7"
           width="217.13446"
           height="64.604912"
           x="181.31049"
           y="191.3833"
           style="font-style:normal;font-variant:normal;font-weight:bold;font-stretch:normal;font-size:53.33333206px;font-family:sans-serif;-inkscape-font-specification:'sans-serif Bold';fill:#000000" /></flowRegion><flowPara
         id="flowPara114-3-9">R2</flowPara></flowRoot><g
       id="g12" /><g
       id="g14"><g
         id="g16"
         clip-path="url(#clipPath20)"><path
           d="m 95.73,130.96 2.15,0.62 2.14,0.81 2.14,0.57 2.15,0.16 2.14,0.11 2.14,-0.1 2.15,0.02 2.14,-0.04 2.14,-0.03 2.15,-0.02 2.14,-0.08 2.14,0.1 2.15,0.2 2.14,0.35 2.14,0.43 2.15,0.52 2.14,0.04 2.14,2.32 2.15,-3.39 2.14,-0.76 2.14,-0.63 2.15,-0.38 2.14,-0.37 h 2.14 l 2.15,0.27 2.14,0.45 2.14,0.6 2.15,0.98 2.14,1.08 2.14,1.13 2.15,1.77 2.14,1.61 2.14,1.52 2.15,1.47 2.14,1.5 2.14,1.83 2.15,2.15 2.14,1.56 2.14,1.26 2.15,0.58 2.14,-0.32 2.14,-1.41 2.15,5.12 2.14,5.06 2.14,3.31 2.15,1.12 2.14,-1.13 2.14,-3.21 2.15,-3.57 2.14,-2.71 2.14,-1.99 2.15,-2.1 2.14,-0.13 2.14,-0.58 2.14,-1.97 2.15,-2.85 2.14,-3.4 2.14,-3.46 2.15,-1.6 2.14,2.21 2.14,2.33 2.15,2.58 2.14,4.2 2.14,4.51 2.15,3.88 2.14,3.23 2.14,1.91 2.15,-0.06 2.14,-1.1 2.14,-2.11 2.15,-0.58 2.14,1.18 2.14,1.29 2.15,0.47 2.14,-1.6 2.14,-2.78 2.15,1.55 2.14,1.99 2.14,3.15 2.15,4.02 2.14,1.95 2.14,-0.98 2.15,-0.19 2.14,4.74 2.14,5.49 2.15,4.97 2.14,5.23 2.14,3.94 2.15,0.1 2.14,-1.25 2.14,-3.05 2.15,-4.86 2.14,4.06 2.14,4.26 2.15,-0.46 2.14,-4.16 2.14,-4.21 2.15,-3.86 2.14,-1.32 2.14,-0.3 2.15,-4.01 2.14,-2.82 2.14,-1.1 2.15,-0.67 2.14,-0.41 2.14,-0.21 2.15,-0.09 2.14,-0.2 2.14,-0.37 2.15,-0.52 2.14,-0.67 2.14,-0.71 2.15,-0.78 2.14,4.03 2.14,-0.45 2.15,-4.02 2.14,-6.11 2.14,-2.63 2.15,-1.27 2.14,-2.78 2.14,-3.36 2.15,-2.98 2.14,1.53 2.14,3.12 2.15,4.14 2.14,0.88 2.14,-3.67 2.15,-5.41 2.14,-4.35 2.14,-3.04 2.15,-2.5 2.14,1.58 2.14,1.91 2.15,1.99 2.14,2.13 2.14,2.22 2.15,2.08 2.14,1.97 2.14,1.71 2.15,1.5 2.14,0.49 2.14,0.24 2.15,-0.92 2.14,-1.94 2.14,1.29 2.15,1.44 2.14,1.51 2.14,1.45 2.15,1.21 2.14,1.05 2.14,0.82 2.15,0.58 2.14,0.31 2.14,0.01 2.15,-0.34 2.14,-0.73 2.14,-1.14 2.15,-1.58 2.14,-1.88 2.14,-2.12 2.14,-2.23 2.15,-2.19 2.14,-2.04 2.14,2.61 2.15,1.81 2.14,1.05 2.14,0.32 2.15,0.07 2.14,0.5 2.14,1.22 2.15,1.87 2.14,1.68 2.14,0.68 2.15,-0.8 2.14,-1.73 2.14,-2.03 2.15,0.23 2.14,0.06 2.14,-0.98 2.15,-1.64 2.14,0.02 2.14,-0.12 2.15,-0.24 2.14,1.72 2.14,2.42 2.15,2.72 2.14,2.9 2.14,3.39 2.15,3.82 2.14,3.64 2.14,2.75 2.15,1.41 2.14,0.58 2.14,0.43 2.15,5.13 2.14,-0.23 2.14,-5.23 2.15,-0.36 2.14,2.14 2.14,1.58 2.15,-1.5 2.14,-4.03 2.14,-5.83 2.15,5.13 2.14,4.72 2.14,3.94 2.15,1.47 2.14,-1.53 2.14,2.02 2.15,3.76 2.14,-2.76 2.14,-5.42 2.15,5.65 2.14,7.55 2.14,9.62 2.15,12.33 2.14,13.41 2.14,10.06 2.15,3.08 2.14,-12.05 2.14,-2.21 2.15,4.83 2.14,1.05 2.14,-2.99 2.15,6.89 2.14,1.33 2.14,-4.14 2.15,-7.76 2.14,-7.64 2.14,-6.8 2.15,5.02 2.14,9.83 2.14,9.12 2.15,0.59 2.14,-3.61 2.14,-10.05 2.15,8.68 2.14,-1.47 2.14,-6.24 2.15,-12.42 2.14,-5.64 2.14,-8.44 2.15,5.43 2.14,2 2.14,-1.6 2.15,2.66 2.14,2.27 2.14,-0.12 2.15,-2.56 2.14,5.14 2.14,-1.6 2.15,-8.57 2.14,-7.89 2.14,-7.05 2.15,-8.28 2.14,-2.94 2.14,-1.41 2.15,-2.03 2.14,-2.47 2.14,0.94 2.15,1.12 2.14,0.01 2.14,0.96 2.15,1.63 2.14,1.78 2.14,2.62 2.15,6.23 2.14,7.53 2.14,-8.62 2.14,-4.52 2.15,-0.92 2.14,-1.84 2.14,-2.83 2.15,-3.6 2.14,-2.24 2.14,2.26 2.15,1.43 2.14,5.37 2.14,6.12 2.15,6.85 2.14,7.36 2.14,7.28 2.15,4.72 2.14,-0.69 2.14,-6.3 2.15,-9.54 2.14,4.62 2.14,4.85 2.15,6.17 2.14,5.59 2.14,-7.05 2.15,-8.21 2.14,-5.07 2.14,-4.7 2.15,-4.74 2.14,4.62 2.14,1.92 2.15,-2.47 2.14,-5.43 2.14,-1.75 2.15,-3.8 2.14,-4.27 2.14,-1.71 2.15,-1.54 2.14,-0.85 2.14,4.76 2.15,6.18 2.14,8.2 2.14,8.48 2.15,6.73 2.14,-1.38 2.14,-6.09 2.15,-11.2 2.14,14.72 2.14,0.72 2.15,-5.75 2.14,-5.54 2.14,-3.67 2.15,-4.06 2.14,-4.86 2.14,-3.42 2.15,-2.5 2.14,7.85 2.14,8.93 2.15,4.17 2.14,-4.73 2.14,-2.7 2.15,-0.3 2.14,-2.93 2.14,-4.95 2.15,-4.88 2.14,-2.56 2.14,1.55 2.15,1.77 2.14,-0.3 2.14,-2.28 2.15,-3.53 2.14,-1.89 2.14,1.71 2.15,1.39 2.14,2.12 2.14,4.33 2.15,4.3 2.14,3.26 2.14,1.09 2.15,-1.45 2.14,2.46 2.14,3.96 2.15,0.43 2.14,-1.32 2.14,4.34 2.15,7.25 2.14,17.21 2.14,5.39 2.15,-8.83 2.14,-7.09 2.14,-7.46 2.15,-8.17 2.14,-5.54 2.14,2.79 2.15,3.23 2.14,4.3 2.14,1.56 2.15,-2.54 2.14,-5.62 2.14,-4.94 2.15,-4.44 2.14,-4.85 2.14,5.09 2.15,7.34 2.14,9.18 2.14,9.79 2.15,7.92 2.14,2.29 2.14,-3.73 2.14,-7.18 2.15,-8.09 2.14,11.47 2.14,15.13 2.15,19.74 2.14,27.27 2.14,34.66 2.15,67.57 2.14,23.72 2.14,2.31 2.15,-17.63 2.14,24.55 2.14,4.23 2.15,-18.28 2.14,15.25 2.14,-5.95 2.15,7.5 2.14,-11.33 2.14,-22.53 2.15,16.27 2.14,9.96 2.14,-1.04 2.15,12.4 2.14,-7.93 2.14,-25.64 2.15,26.69 2.14,10.51 2.14,-11.15 2.15,4.03 2.14,-17.09 2.14,-26.35 2.15,20.91 2.14,9.07 2.14,-10.07 2.15,19.55 2.14,1.86 2.14,-15.4 2.15,4.85 2.14,-26.98 2.14,25.16 2.15,10.3 2.14,-0.49 2.14,-17.37 2.15,14.87 2.14,7.61 2.14,-2.24 2.15,4.22 2.14,-10.81 2.14,0.47 2.15,-8.64 2.14,19.25 2.14,17.16 2.15,7.68"
           style="fill:none;stroke:#000000;stroke-width:2.25;stroke-linecap:round;stroke-linejoin:round;stroke-miterlimit:10;stroke-dasharray:none;stroke-opacity:1"
           id="path22"
           inkscape:connector-curvature="0" /></g></g><g
       id="g24"><path
   d="M 93.59,73.44 H 950.91"
   style="fill:none;stroke:#000000;stroke-width:0.75;stroke-linecap:round;stroke-linejoin:round;stroke-miterlimit:10;stroke-dasharray:none;stroke-opacity:1"
   id="path26"
   inkscape:connector-curvature="0" /><path
   d="m 93.59,73.44 v -7.2"
   style="fill:none;stroke:#000000;stroke-width:0.75;stroke-linecap:round;stroke-linejoin:round;stroke-miterlimit:10;stroke-dasharray:none;stroke-opacity:1"
   id="path28"
   inkscape:connector-curvature="0" /><path
   d="m 307.92,73.44 v -7.2"
   style="fill:none;stroke:#000000;stroke-width:0.75;stroke-linecap:round;stroke-linejoin:round;stroke-miterlimit:10;stroke-dasharray:none;stroke-opacity:1"
   id="path30"
   inkscape:connector-curvature="0" /><path
   d="m 522.25,73.44 v -7.2"
   style="fill:none;stroke:#000000;stroke-width:0.75;stroke-linecap:round;stroke-linejoin:round;stroke-miterlimit:10;stroke-dasharray:none;stroke-opacity:1"
   id="path32"
   inkscape:connector-curvature="0" /><path
   d="m 736.58,73.44 v -7.2"
   style="fill:none;stroke:#000000;stroke-width:0.75;stroke-linecap:round;stroke-linejoin:round;stroke-miterlimit:10;stroke-dasharray:none;stroke-opacity:1"
   id="path34"
   inkscape:connector-curvature="0" /><path
   d="m 950.91,73.44 v -7.2"
   style="fill:none;stroke:#000000;stroke-width:0.75;stroke-linecap:round;stroke-linejoin:round;stroke-miterlimit:10;stroke-dasharray:none;stroke-opacity:1"
   id="path36"
   inkscape:connector-curvature="0" /><text
   transform="matrix(1,0,0,-1,88.59,47.52)"
   style="font-variant:normal;font-weight:normal;font-size:18px;font-family:Helvetica;-inkscape-font-specification:Helvetica;writing-mode:lr-tb;fill:#000000;fill-opacity:1;fill-rule:nonzero;stroke:none"
   id="text40"><tspan
     x="0"
     y="0"
     id="tspan38">0</tspan></text>


<text
   transform="matrix(1,0,0,-1,292.91,47.52)"
   style="font-variant:normal;font-weight:normal;font-size:18px;font-family:Helvetica;-inkscape-font-specification:Helvetica;writing-mode:lr-tb;fill:#000000;fill-opacity:1;fill-rule:nonzero;stroke:none"
   id="text44"><tspan
     x="0 10.008 20.016001"
     y="0"
     sodipodi:role="line"
     id="tspan42">100</tspan></text>


<text
   transform="matrix(1,0,0,-1,507.24,47.52)"
   style="font-variant:normal;font-weight:normal;font-size:18px;font-family:Helvetica;-inkscape-font-specification:Helvetica;writing-mode:lr-tb;fill:#000000;fill-opacity:1;fill-rule:nonzero;stroke:none"
   id="text48"><tspan
     x="0 10.008 20.016001"
     y="0"
     sodipodi:role="line"
     id="tspan46">200</tspan></text>


<text
   transform="matrix(1,0,0,-1,721.57,47.52)"
   style="font-variant:normal;font-weight:normal;font-size:18px;font-family:Helvetica;-inkscape-font-specification:Helvetica;writing-mode:lr-tb;fill:#000000;fill-opacity:1;fill-rule:nonzero;stroke:none"
   id="text52"><tspan
     x="0 10.008 20.016001"
     y="0"
     sodipodi:role="line"
     id="tspan50">300</tspan></text>


<text
   transform="matrix(1,0,0,-1,935.9,47.52)"
   style="font-variant:normal;font-weight:normal;font-size:18px;font-family:Helvetica;-inkscape-font-specification:Helvetica;writing-mode:lr-tb;fill:#000000;fill-opacity:1;fill-rule:nonzero;stroke:none"
   id="text56"><tspan
     x="0 10.008 20.016001"
     y="0"
     sodipodi:role="line"
     id="tspan54">400</tspan></text>


<path
   d="m 59.04,87.2 v 344"
   style="fill:none;stroke:#000000;stroke-width:0.75;stroke-linecap:round;stroke-linejoin:round;stroke-miterlimit:10;stroke-dasharray:none;stroke-opacity:1"
   id="path58"
   inkscape:connector-curvature="0" /><path
   d="m 59.04,87.2 h -7.2"
   style="fill:none;stroke:#000000;stroke-width:0.75;stroke-linecap:round;stroke-linejoin:round;stroke-miterlimit:10;stroke-dasharray:none;stroke-opacity:1"
   id="path60"
   inkscape:connector-curvature="0" /><path
   d="m 59.04,156 h -7.2"
   style="fill:none;stroke:#000000;stroke-width:0.75;stroke-linecap:round;stroke-linejoin:round;stroke-miterlimit:10;stroke-dasharray:none;stroke-opacity:1"
   id="path62"
   inkscape:connector-curvature="0" /><path
   d="m 59.04,224.8 h -7.2"
   style="fill:none;stroke:#000000;stroke-width:0.75;stroke-linecap:round;stroke-linejoin:round;stroke-miterlimit:10;stroke-dasharray:none;stroke-opacity:1"
   id="path64"
   inkscape:connector-curvature="0" /><path
   d="m 59.04,293.6 h -7.2"
   style="fill:none;stroke:#000000;stroke-width:0.75;stroke-linecap:round;stroke-linejoin:round;stroke-miterlimit:10;stroke-dasharray:none;stroke-opacity:1"
   id="path66"
   inkscape:connector-curvature="0" /><path
   d="m 59.04,362.4 h -7.2"
   style="fill:none;stroke:#000000;stroke-width:0.75;stroke-linecap:round;stroke-linejoin:round;stroke-miterlimit:10;stroke-dasharray:none;stroke-opacity:1"
   id="path68"
   inkscape:connector-curvature="0" /><path
   d="m 59.04,431.2 h -7.2"
   style="fill:none;stroke:#000000;stroke-width:0.75;stroke-linecap:round;stroke-linejoin:round;stroke-miterlimit:10;stroke-dasharray:none;stroke-opacity:1"
   id="path70"
   inkscape:connector-curvature="0" /><text
   transform="matrix(0,1,1,0,41.76,74.69)"
   style="font-variant:normal;font-weight:normal;font-size:18px;font-family:Helvetica;-inkscape-font-specification:Helvetica;writing-mode:lr-tb;fill:#000000;fill-opacity:1;fill-rule:nonzero;stroke:none"
   id="text74"><tspan
     x="0 10.008 15.012"
     y="0"
     sodipodi:role="line"
     id="tspan72">0.0</tspan></text>


<text
   transform="matrix(0,1,1,0,41.76,143.49)"
   style="font-variant:normal;font-weight:normal;font-size:18px;font-family:Helvetica;-inkscape-font-specification:Helvetica;writing-mode:lr-tb;fill:#000000;fill-opacity:1;fill-rule:nonzero;stroke:none"
   id="text78"><tspan
     x="0 10.008 15.012"
     y="0"
     sodipodi:role="line"
     id="tspan76">0.2</tspan></text>


<text
   transform="matrix(0,1,1,0,41.76,212.29)"
   style="font-variant:normal;font-weight:normal;font-size:18px;font-family:Helvetica;-inkscape-font-specification:Helvetica;writing-mode:lr-tb;fill:#000000;fill-opacity:1;fill-rule:nonzero;stroke:none"
   id="text82"><tspan
     x="0 10.008 15.012"
     y="0"
     sodipodi:role="line"
     id="tspan80">0.4</tspan></text>


<text
   transform="matrix(0,1,1,0,41.76,281.09)"
   style="font-variant:normal;font-weight:normal;font-size:18px;font-family:Helvetica;-inkscape-font-specification:Helvetica;writing-mode:lr-tb;fill:#000000;fill-opacity:1;fill-rule:nonzero;stroke:none"
   id="text86"><tspan
     x="0 10.008 15.012"
     y="0"
     sodipodi:role="line"
     id="tspan84">0.6</tspan></text>


<text
   transform="matrix(0,1,1,0,41.76,349.89)"
   style="font-variant:normal;font-weight:normal;font-size:18px;font-family:Helvetica;-inkscape-font-specification:Helvetica;writing-mode:lr-tb;fill:#000000;fill-opacity:1;fill-rule:nonzero;stroke:none"
   id="text90"><tspan
     x="0 10.008 15.012"
     y="0"
     sodipodi:role="line"
     id="tspan88">0.8</tspan></text>


<text
   transform="matrix(0,1,1,0,41.76,418.69)"
   style="font-variant:normal;font-weight:normal;font-size:18px;font-family:Helvetica;-inkscape-font-specification:Helvetica;writing-mode:lr-tb;fill:#000000;fill-opacity:1;fill-rule:nonzero;stroke:none"
   id="text94"><tspan
     x="0 10.008 15.012"
     y="0"
     sodipodi:role="line"
     id="tspan92">1.0</tspan></text>


<path
   d="m 59.04,73.44 h 990.72 V 444.96 H 59.04 V 73.44"
   style="fill:none;stroke:#000000;stroke-width:0.75;stroke-linecap:round;stroke-linejoin:round;stroke-miterlimit:10;stroke-dasharray:none;stroke-opacity:1"
   id="path96"
   inkscape:connector-curvature="0" /></g><g
       id="g98"><text
   transform="matrix(1,0,0,-1,512.34,18.72)"
   style="font-variant:normal;font-weight:normal;font-size:18px;font-family:Helvetica;-inkscape-font-specification:Helvetica;writing-mode:lr-tb;fill:#000000;fill-opacity:1;fill-rule:nonzero;stroke:none"
   id="text102"><tspan
     x="0 10.998 16.812 26.82 41.813999 51.821999 56.826 69.821999 79.110001"
     y="0"
     sodipodi:role="line"
     id="tspan100">Frame No.</tspan></text>


<text
   transform="matrix(0,1,1,0,12.96,218.94)"
   style="font-variant:normal;font-weight:normal;font-size:18px;font-family:Helvetica;-inkscape-font-specification:Helvetica;writing-mode:lr-tb;fill:#000000;fill-opacity:1;fill-rule:nonzero;stroke:none"
   id="text106"><tspan
     x="0 10.998 25.992001 36.504002 45.504002 54.504002 64.512001 70.505997"
     y="0"
     sodipodi:role="line"
     id="tspan104">TM−score</tspan></text>


</g><circle
       style="fill:#ff0000;fill-rule:evenodd;stroke-width:3.30882382"
       id="path122-7"
       cx="225.23366"
       cy="-136.51376"
       r="5.625"
       transform="scale(1,-1)" /><circle
       style="fill:#ff0000;fill-rule:evenodd;stroke-width:4.4117651"
       id="path122-7-3"
       cx="377.40463"
       cy="-136.0439"
       transform="scale(1,-1)"
       r="7.5" /><circle
       style="fill:#ff0000;fill-rule:evenodd;stroke-width:3.30882382"
       id="path122-7-6"
       cx="149.90619"
       cy="-132.59773"
       r="5.625"
       transform="scale(1,-1)" /><circle
       style="fill:#0000ff;fill-opacity:1;fill-rule:evenodd;stroke-width:3.30882382"
       id="path122-7-2-2"
       cx="298.93988"
       cy="-195.66005"
       r="5.625"
       transform="scale(1,-1)" /><circle
       style="fill:#0000ff;fill-opacity:1;fill-rule:evenodd;stroke-width:3.30882382"
       id="path122-7-2-2-7"
       cx="668.61938"
       cy="-189.99826"
       transform="scale(1,-1)"
       r="5.625" /><circle
       style="fill:#0000ff;fill-opacity:1;fill-rule:evenodd;stroke-width:3.30882382"
       id="path122-7-2-2-5"
       cx="760.59235"
       cy="-203.32162"
       r="5.625"
       transform="scale(1,-1)" /><flowRoot
       xml:space="preserve"
       id="flowRoot4742"
       style="font-style:normal;font-weight:normal;font-size:29.33333397px;line-height:1.25;font-family:sans-serif;letter-spacing:0px;word-spacing:0px;fill:#000000;fill-opacity:1;stroke:none"
       transform="matrix(0.75000002,0,0,-0.75000002,-86.036571,500.15167)"><flowRegion
         id="flowRegion4744"
         style="font-size:29.33333397px"><rect
           id="rect4746"
           width="53.927868"
           height="45.787804"
           x="300.16455"
           y="500.04132"
           style="font-size:29.33333397px" /></flowRegion><flowPara
         id="flowPara4748"
         style="font-weight:bold;font-size:29.33333397px">C<flowSpan
   style="font-size:29.33333397px;baseline-shift:sub"
   id="flowSpan4758">1</flowSpan></flowPara></flowRoot><flowRoot
       xml:space="preserve"
       id="flowRoot4742-9"
       style="font-style:normal;font-weight:normal;font-size:29.33333397px;line-height:1.25;font-family:sans-serif;letter-spacing:0px;word-spacing:0px;fill:#000000;fill-opacity:1;stroke:none"
       transform="matrix(0.75000002,0,0,-0.75000002,-14.189796,499.39747)"><flowRegion
         id="flowRegion4744-3"
         style="font-size:29.33333397px"><rect
           id="rect4746-6"
           width="53.927868"
           height="45.787804"
           x="300.16455"
           y="500.04132"
           style="font-size:29.33333397px" /></flowRegion><flowPara
         id="flowPara4748-0"
         style="font-weight:bold;font-size:29.33333397px">C<flowSpan
   style="font-size:29.33333397px;baseline-shift:sub"
   id="flowSpan4758-6">2</flowSpan></flowPara></flowRoot><flowRoot
       xml:space="preserve"
       id="flowRoot4742-92"
       style="font-style:normal;font-weight:normal;font-size:29.33333397px;line-height:1.25;font-family:sans-serif;letter-spacing:0px;word-spacing:0px;fill:#000000;fill-opacity:1;stroke:none"
       transform="matrix(0.75000002,0,0,-0.75000002,142.93489,503.99679)"><flowRegion
         id="flowRegion4744-0"
         style="font-size:29.33333397px"><rect
           id="rect4746-2"
           width="53.927868"
           height="45.787804"
           x="300.16455"
           y="500.04132"
           style="font-size:29.33333397px" /></flowRegion><flowPara
         id="flowPara4748-3"
         style="font-weight:bold;font-size:29.33333397px">C<flowSpan
   style="font-weight:bold;font-size:29.33333397px;baseline-shift:sub"
   id="flowSpan4758-75">4</flowSpan></flowPara></flowRoot><flowRoot
       xml:space="preserve"
       id="flowRoot4742-2"
       style="font-style:normal;font-weight:normal;font-size:29.33333397px;line-height:1.25;font-family:sans-serif;letter-spacing:0px;word-spacing:0px;fill:#000000;fill-opacity:1;stroke:none"
       transform="matrix(0.75000002,0,0,-0.75000002,87.969393,584.39068)"><flowRegion
         id="flowRegion4744-6"
         style="font-size:29.33333397px"><rect
           id="rect4746-1"
           width="53.927868"
           height="45.787804"
           x="300.16455"
           y="500.04132"
           style="font-size:29.33333397px" /></flowRegion><flowPara
         id="flowPara4748-8"
         style="font-weight:bold;font-size:29.33333397px">C<flowSpan
   style="font-size:29.33333397px;baseline-shift:sub"
   id="flowSpan4758-7">3</flowSpan></flowPara></flowRoot><flowRoot
       xml:space="preserve"
       id="flowRoot4742-922"
       style="font-style:normal;font-weight:normal;font-size:29.33333397px;line-height:1.25;font-family:sans-serif;letter-spacing:0px;word-spacing:0px;fill:#000000;fill-opacity:1;stroke:none"
       transform="matrix(0.75000002,0,0,-0.75000002,273.83324,591.12975)"><flowRegion
         id="flowRegion4744-8"
         style="font-size:29.33333397px"><rect
           id="rect4746-9"
           width="53.927868"
           height="45.787804"
           x="300.16455"
           y="500.04132"
           style="font-size:29.33333397px" /></flowRegion><flowPara
         id="flowPara4748-7"
         style="font-weight:bold;font-size:29.33333397px">C<flowSpan
   style="font-size:29.33333397px;baseline-shift:sub"
   id="flowSpan4758-3">5</flowSpan></flowPara></flowRoot><flowRoot
       xml:space="preserve"
       id="flowRoot4742-6"
       style="font-style:normal;font-weight:normal;font-size:29.33333397px;line-height:1.25;font-family:sans-serif;letter-spacing:0px;word-spacing:0px;fill:#000000;fill-opacity:1;stroke:none"
       transform="matrix(0.75000002,0,0,-0.75000002,428.32986,595.94634)"><flowRegion
         id="flowRegion4744-1"
         style="font-size:29.33333397px"><rect
           id="rect4746-29"
           width="53.927868"
           height="45.787804"
           x="300.16455"
           y="500.04132"
           style="font-size:29.33333397px" /></flowRegion><flowPara
         id="flowPara4748-31"
         style="font-weight:bold;font-size:29.33333397px">C<flowSpan
   style="font-size:29.33333397px;baseline-shift:sub"
   id="flowSpan4758-9">6</flowSpan></flowPara></flowRoot><path
       style="opacity:1;vector-effect:none;fill:#ff0000;fill-opacity:0;fill-rule:evenodd;stroke:#ff0000;stroke-width:0.75;stroke-linecap:butt;stroke-linejoin:miter;stroke-miterlimit:4;stroke-dasharray:6.00000015, 3.00000008;stroke-dashoffset:0;stroke-opacity:1"
       id="path1134"
       sodipodi:type="arc"
       sodipodi:cx="280.01566"
       sodipodi:cy="-133.80351"
       sodipodi:rx="171.49583"
       sodipodi:ry="33.451569"
       sodipodi:start="5.6961787"
       sodipodi:end="5.5992431"
       sodipodi:open="true"
       d="m 422.80349,-152.33137 a 171.49583,33.451569 0 0 1 -44.36915,45.92258 171.49583,33.451569 0 0 1 -236.43685,-7.53923 171.49583,33.451569 0 0 1 32.9107,-46.28795 171.49583,33.451569 0 0 1 238.0318,5.29597"
       transform="scale(1,-1)" /><path
       style="opacity:1;vector-effect:none;fill:#0000ff;fill-opacity:0;fill-rule:evenodd;stroke:#0000ff;stroke-width:0.75;stroke-linecap:butt;stroke-linejoin:miter;stroke-miterlimit:4;stroke-dasharray:6.00000015, 3.00000008;stroke-dashoffset:0;stroke-opacity:1"
       id="path1134-3"
       sodipodi:type="arc"
       sodipodi:cx="538.80322"
       sodipodi:cy="-197.20836"
       sodipodi:rx="270.98056"
       sodipodi:ry="31.169016"
       sodipodi:start="5.6961787"
       sodipodi:end="5.5992431"
       sodipodi:open="true"
       d="m 764.42228,-214.47198 a 270.98056,31.169016 0 0 1 -70.1077,42.78907 270.98056,31.169016 0 0 1 -373.59386,-7.02479 270.98056,31.169016 0 0 1 52.00221,-43.12951 270.98056,31.169016 0 0 1 376.11403,4.9346"
       transform="scale(1,-1)" /><flowRoot
       xml:space="preserve"
       id="flowRoot108-6-2"
       style="font-style:normal;font-variant:normal;font-weight:bold;font-stretch:normal;font-size:53.33333206px;line-height:1.25;font-family:sans-serif;-inkscape-font-specification:'sans-serif Bold';letter-spacing:0px;word-spacing:0px;fill:#ff0000;fill-opacity:1;stroke:none"
       transform="matrix(0.75000002,0,0,-0.75000002,-54.648377,345.12139)"><flowRegion
         id="flowRegion110-7-0"
         style="font-style:normal;font-variant:normal;font-weight:bold;font-stretch:normal;font-size:53.33333206px;font-family:sans-serif;-inkscape-font-specification:'sans-serif Bold';fill:#ff0000"><rect
           id="rect112-5-2"
           width="217.13446"
           height="64.604912"
           x="181.31049"
           y="191.3833"
           style="font-style:normal;font-variant:normal;font-weight:bold;font-stretch:normal;font-size:53.33333206px;font-family:sans-serif;-inkscape-font-specification:'sans-serif Bold';fill:#ff0000" /></flowRegion><flowPara
         id="flowPara114-3-3"
         style="font-weight:normal">G1</flowPara></flowRoot><flowRoot
       xml:space="preserve"
       id="flowRoot108-6-7"
       style="font-style:normal;font-variant:normal;font-weight:bold;font-stretch:normal;font-size:53.33333206px;line-height:1.25;font-family:sans-serif;-inkscape-font-specification:'sans-serif Bold';letter-spacing:0px;word-spacing:0px;fill:#0000ff;fill-opacity:1;stroke:none"
       transform="matrix(0.75000002,0,0,-0.75000002,562.45673,301.89721)"><flowRegion
         id="flowRegion110-7-5"
         style="font-style:normal;font-variant:normal;font-weight:bold;font-stretch:normal;font-size:53.33333206px;font-family:sans-serif;-inkscape-font-specification:'sans-serif Bold';fill:#0000ff"><rect
           id="rect112-5-9"
           width="217.13446"
           height="64.604912"
           x="181.31049"
           y="191.3833"
           style="font-style:normal;font-variant:normal;font-weight:bold;font-stretch:normal;font-size:53.33333206px;font-family:sans-serif;-inkscape-font-specification:'sans-serif Bold';fill:#0000ff" /></flowRegion><flowPara
         id="flowPara114-3-2"
         style="font-weight:normal">G2</flowPara></flowRoot><circle
       style="fill:#0000ff;fill-opacity:1;fill-rule:evenodd;stroke-width:3.30882382"
       id="path122-7-2-2-5-3"
       cx="516.22748"
       cy="-181.31956"
       r="5.625"
       transform="scale(1,-1)" /><flowRoot
       xml:space="preserve"
       id="flowRoot4742-6-6"
       style="font-style:normal;font-weight:normal;font-size:29.33333397px;line-height:1.25;font-family:sans-serif;letter-spacing:0px;word-spacing:0px;fill:#000000;fill-opacity:1;stroke:none"
       transform="matrix(0.75000002,0,0,-0.75000002,520.19686,607.87067)"><flowRegion
         id="flowRegion4744-1-7"
         style="font-size:29.33333397px"><rect
           id="rect4746-29-5"
           width="42.550934"
           height="33.344261"
           x="300.16455"
           y="500.04132"
           style="font-size:29.33333397px" /></flowRegion><flowPara
         id="flowPara4748-31-3"
         style="font-weight:bold;font-size:29.33333397px">C<flowSpan
   style="font-size:29.33333397px;baseline-shift:sub"
   id="flowSpan4758-9-5">7</flowSpan></flowPara></flowRoot><path
       style="opacity:1;vector-effect:none;fill:none;fill-opacity:1;stroke:#000000;stroke-width:1.5;stroke-linecap:butt;stroke-linejoin:miter;stroke-miterlimit:4;stroke-dasharray:12.00000036, 6.00000018;stroke-dashoffset:0;stroke-opacity:1"
       d="m 149.322,145.05565 119.45759,233.58226 v 0"
       id="path153"
       inkscape:connector-curvature="0" /><path
       style="opacity:1;vector-effect:none;fill:none;fill-opacity:1;stroke:#000000;stroke-width:1.5;stroke-linecap:butt;stroke-linejoin:miter;stroke-miterlimit:4;stroke-dasharray:12.00000036, 6.00000018;stroke-dashoffset:0;stroke-opacity:1"
       d="M 281.57862,376.50474 222.19,135.35 v 0 0"
       id="path155"
       inkscape:connector-curvature="0" /><path
       style="opacity:1;vector-effect:none;fill:none;fill-opacity:1;stroke:#000000;stroke-width:1.5;stroke-linecap:butt;stroke-linejoin:miter;stroke-miterlimit:4;stroke-dasharray:12.00000036, 6.00000018;stroke-dashoffset:0;stroke-opacity:1"
       d="m 370.08,144.18 -79.71686,233.66917 h 0.75419"
       id="path157"
       inkscape:connector-curvature="0" /><path
       style="opacity:1;vector-effect:none;fill:none;fill-opacity:1;stroke:#000000;stroke-width:1.5;stroke-linecap:butt;stroke-linejoin:miter;stroke-miterlimit:4;stroke-dasharray:12.00000036, 6.00000018;stroke-dashoffset:0;stroke-opacity:1"
       d="m 305.44694,205.13966 291.87151,171.20113 v 0 0"
       id="path159"
       inkscape:connector-curvature="0" /><path
       style="opacity:1;vector-effect:none;fill:none;fill-opacity:1;stroke:#000000;stroke-width:1.5;stroke-linecap:butt;stroke-linejoin:miter;stroke-miterlimit:4;stroke-dasharray:12.00000036, 6.00000018;stroke-dashoffset:0;stroke-opacity:1"
       d="m 518.12851,188.54749 87.48604,185.53073 v 0"
       id="path161"
       inkscape:connector-curvature="0" /><path
       style="opacity:1;vector-effect:none;fill:none;fill-opacity:1;stroke:#000000;stroke-width:1.5;stroke-linecap:butt;stroke-linejoin:miter;stroke-miterlimit:4;stroke-dasharray:12.00000036, 6.00000018;stroke-dashoffset:0;stroke-opacity:1"
       d="m 667.45812,199.86034 -52.03911,171.95531 v 0"
       id="path163"
       inkscape:connector-curvature="0" /><path
       style="opacity:1;vector-effect:none;fill:none;fill-opacity:1;stroke:#000000;stroke-width:1.5;stroke-linecap:butt;stroke-linejoin:miter;stroke-miterlimit:4;stroke-dasharray:12.00000036, 6.00000018;stroke-dashoffset:0;stroke-opacity:1"
       d="M 757.2067,211.92737 625.22348,377.09498 v 0"
       id="path165"
       inkscape:connector-curvature="0" /></g></svg>